<svg id="Layer_1" data-name="Layer 1" xmlns="http://www.w3.org/2000/svg" viewBox="0 0 72.08 55.61"><defs><style>.cls-1{fill:#fefefe;}.cls-2{fill:#49d249;}</style></defs><title>daisy</title><path class="cls-1" d="M.11,55.65V0H72.19V55.65ZM48,45.45l.89.79a11.76,11.76,0,0,0,1.18,1.06,5.15,5.15,0,0,0,2.39.77c.84.1,1.68.28,2.53.3s1.77-.2,2.66-.18a3.86,3.86,0,0,0,2.5-.88,7.54,7.54,0,0,0,2.58-2.76,6.48,6.48,0,0,0,.66-2.34A7.11,7.11,0,0,0,63,40.29a2.61,2.61,0,0,0-.36-.73A11.16,11.16,0,0,0,61.62,38,8.2,8.2,0,0,0,60.2,36.9a5.66,5.66,0,0,0-1.71-.83,11,11,0,0,1-1.82-1,10.12,10.12,0,0,0-1.9-.78c-.49-.12-.89-.73-1.57-.25.18.14.37.28.54.43a10,10,0,0,1,.83.76,3.47,3.47,0,0,1,.91,2.2,4.93,4.93,0,0,1-.23,1.62A4.58,4.58,0,0,1,53.64,41a6.93,6.93,0,0,1-2.24,1,3.79,3.79,0,0,1-1,.4,17,17,0,0,1-2.47-.09,4.88,4.88,0,0,1-.92-.39c-.16-.06-.38,0-.53-.07-.4-.2-.77-.44-1.15-.67l-.16.14C46,42.8,47.14,44,48,45.45ZM52,22.4l.08.25a2.15,2.15,0,0,0,.62-.08c.36-.14.69-.37,1-.52,1-.42,2-.79,3-1.22A14,14,0,0,0,59,19.74c.47-.32,1.14-.42,1.37-1.1a2,2,0,0,1,.58-.8,3.79,3.79,0,0,0,1.08-2,7.63,7.63,0,0,0,.12-2,3.83,3.83,0,0,0-.79-2.09c-.35-.48-.71-.94-1.1-1.39a5.93,5.93,0,0,0-1.66-1.27A10.13,10.13,0,0,0,57,8.39a4.58,4.58,0,0,0-1.39-.31c-1.33,0-2.66.05-4,.1-.18,0-.49.08-.52.18-.09.36-.27.24-.48.19a.65.65,0,0,0-.39.06,8.25,8.25,0,0,1-1.58.83c-1,.23-1.12,1.36-2,1.62,0,0,0,0,0,0,.06.69-.57,1-.87,1.48-.58.93-1.3,1.78-2,2.65l.06.13a2.36,2.36,0,0,0,.61-.12c.25-.12.45-.34.71-.46A19.53,19.53,0,0,1,47.05,14a4,4,0,0,1,.85-.07,3.42,3.42,0,0,1,2.51.41,7.33,7.33,0,0,0,1.84.78,3.44,3.44,0,0,1,2.15,2.29,3.73,3.73,0,0,1-.54,3.54,5.11,5.11,0,0,1-1.13,1C52.51,22.09,52.25,22.24,52,22.4Zm-32.35,12-.14-.19L16.35,35.5c-.16.07-.28.23-.44.31a11,11,0,0,0-2,1,7.67,7.67,0,0,0-2.25,2.36,3.91,3.91,0,0,0-.8,2.36A9.8,9.8,0,0,0,11,43a7.13,7.13,0,0,0,.73,1.86c.29.47.88.75,1.17,1.21a3.84,3.84,0,0,0,1.66,1.31,11.17,11.17,0,0,0,4.5.87c.39,0,.79,0,1.18,0s.95.2,1.3-.3c0,0,.17-.06.25,0a3.6,3.6,0,0,0,2.86-1.15c.55-.45,1.28-.83,1.58-1.62.15-.41.6-.7.89-1.06.72-.86,1.1-2,2.12-2.61,0,0,0-.14.06-.2a8.59,8.59,0,0,1,.48-1,9,9,0,0,1,.64-.88c-.2-.06-.35-.06-.38,0a4.17,4.17,0,0,1-1.49,1.4,6.56,6.56,0,0,1-1.95,1c-.39.1-.74.4-1.13.46a6.42,6.42,0,0,1-4.6-1c-.28-.17-.61-.27-.88-.46a4.43,4.43,0,0,1-1.59-2,3.42,3.42,0,0,1,.4-3.22C19,35.18,19.36,34.8,19.66,34.41ZM15.12,22.22v-.07a7.18,7.18,0,0,1-1.54,0A10.57,10.57,0,0,0,9.35,22a17.72,17.72,0,0,0-1.93.35,7.06,7.06,0,0,0-3.13,2.4,5.77,5.77,0,0,0-1.22,2.67,4.34,4.34,0,0,0,.24,2.43,6.42,6.42,0,0,0,1.41,2.2A11.51,11.51,0,0,0,6.6,33.7a10.83,10.83,0,0,0,2.7.89,5.57,5.57,0,0,0,1.78,0h2.51v-.08L13,34.46a16.92,16.92,0,0,0,3-.54c.9-.33,1.87-.09,2.74-.58a7,7,0,0,1,1.68-.43,1.21,1.21,0,0,0-.63-.13c-.76,0-1.52,0-2.28,0-.26,0-.49-.34-.75-.39a6.73,6.73,0,0,1-2.24-1A3.25,3.25,0,0,1,13,29.53a5.37,5.37,0,0,1-.16-2.11,3,3,0,0,1,.71-1.63,4,4,0,0,1,1.57-1.15,13,13,0,0,0,1.61-.75l.3-.14c.12-.06.29-.2.36-.16.6.33,1-.35,1.54-.28l0-.08c-.24-.07-.48-.13-.72-.21a5,5,0,0,0-.5-.18c-.18,0-.37,0-.55,0a2.38,2.38,0,0,1-1.05-.4c-.31-.22-.87-.09-1.3-.12ZM29.2,15.71c-.23-.31-.48-.61-.69-.94-.39-.59-.71-1.22-1.14-1.78s-1.15-1.24-1.67-1.91a6.39,6.39,0,0,0-3.24-2.35,7.93,7.93,0,0,0-1.93-.31c-.85-.06-1.71,0-2.56,0-.37,0-.8.21-1.1.08-.65-.29-1.1.21-1.64.31a5.87,5.87,0,0,0-1.69.82,4.12,4.12,0,0,0-1.13.89c-.42.54-.69,1.18-1.07,1.75a4.48,4.48,0,0,0-.7,2.28,4.59,4.59,0,0,0,.21,1.41,4.7,4.7,0,0,0,1.6,2.75,1.58,1.58,0,0,1,.12.15,4.28,4.28,0,0,0,.92.89c1.31.68,2.65,1.28,4,1.9.7.32,1.42.62,2.14.9a3,3,0,0,0,.76.1c-.34-.42-.56-.91-.91-1-.75-.28-1-.94-1.23-1.5a3.89,3.89,0,0,1,1.34-4.43,13.2,13.2,0,0,1,2.2-1.08A7.56,7.56,0,0,1,25,14.25c.42,0,.83-.27,1.27.18s.88.31,1.29.52,1,.61,1.53.93ZM52.5,32.79l-.06.09c.39.14.76.31,1.15.43a6.79,6.79,0,0,0,1.09.22,6,6,0,0,1,1.13.07c.75.26,1.54.29,2.3.63a6.43,6.43,0,0,0,2.5.17c1,0,1.91-.06,2.86-.11a2.22,2.22,0,0,0,.58-.2c.23-.1.45-.23.68-.33a6.17,6.17,0,0,0,1.46-.62,11.69,11.69,0,0,0,1.86-1.86,5.66,5.66,0,0,0,1-1.87,5.47,5.47,0,0,0,.11-2.13,9.48,9.48,0,0,0-.72-1.84,3.53,3.53,0,0,0-1.09-1.5,7.1,7.1,0,0,0-1.23-1.11,7.37,7.37,0,0,0-2.88-.95,19.78,19.78,0,0,0-3.44-.16,18.84,18.84,0,0,1-2.72.27c-.52,0-1,.48-1.64.32,0,0,0,0,0,0L53.52,23a4.7,4.7,0,0,1-.51.12v.15a3.78,3.78,0,0,1,2.26.41c.55.33,1.21.42,1.79.73a3.8,3.8,0,0,1,2.07,2c.64,2,.34,3.51-1.38,4.82a5.07,5.07,0,0,1-.71.31,14.84,14.84,0,0,1-2.24,1.08A11,11,0,0,1,52.5,32.79ZM30.43,41.26a7.41,7.41,0,0,1-.19.8,33.09,33.09,0,0,0-1.16,3.15,5.07,5.07,0,0,0,.3,4,6.33,6.33,0,0,0,1.85,2.23c.21.15.35.41.56.53a6.3,6.3,0,0,0,1.27.58c.3.09.67-.05.83.4,0,.1.34.14.53.15a8.8,8.8,0,0,1,1.36,0,11.71,11.71,0,0,0,4.57-.26,5.79,5.79,0,0,0,3.33-2.05,9.7,9.7,0,0,0,1.22-1.94,5.49,5.49,0,0,0,.28-2.9,5.9,5.9,0,0,0-.33-1.66c-.3-.86-.72-1.68-1.05-2.53-.42-1.11-.8-2.23-1.21-3.34,0-.13-.2-.22-.3-.32a15.19,15.19,0,0,0,.48,1.88A4.86,4.86,0,0,1,43,41.3a2.89,2.89,0,0,1-.3,1,4.19,4.19,0,0,0-.31.69c-.08.52-.84.56-.81,1.15,0,0-.13,0-.19.07-.56.29-1.1.61-1.67.86a6.25,6.25,0,0,1-5.2.46c-.22-.08-.57-.06-.64-.19-.31-.62-1-.72-1.47-1a3.6,3.6,0,0,1-1.75-2.53A2.63,2.63,0,0,0,30.43,41.26Zm11.83-25.6c.23-.15.39-.2.42-.3.32-.85.61-1.71.91-2.56a5.11,5.11,0,0,1,.23-.76,8.35,8.35,0,0,0,.83-3A4.44,4.44,0,0,0,44,6.32a12,12,0,0,0-1.64-1.93,11.25,11.25,0,0,0-1-.76A2.61,2.61,0,0,0,39.65,3c-.14,0-.28-.17-.43-.23a.8.8,0,0,0-.34-.07c-.14,0-.29.1-.41.08A12.58,12.58,0,0,0,32.65,3a5.77,5.77,0,0,0-2.31,1.42,6.36,6.36,0,0,0-.92.77c-.27.38-.36.89-.63,1.28a4.31,4.31,0,0,0-.58,3.5,19.72,19.72,0,0,0,.8,2.43c.31.88.65,1.75,1,2.62a7.32,7.32,0,0,0,.26-1,5.58,5.58,0,0,1,.43-1.14,6.27,6.27,0,0,1,.69-.87,1.81,1.81,0,0,1,.36-.37c.26-.16.56-.27.83-.42A7.73,7.73,0,0,1,37.05,10c.31,0,.63.08,1,.14l-.41.11a7.61,7.61,0,0,0,.94.08,1.49,1.49,0,0,1,.6.17c.21.12.36.32.56.46a13.31,13.31,0,0,1,1.72,1.22A3.52,3.52,0,0,1,42.26,15.66Zm-11.51,11c-.27,0-.59.13-.63.07-.27-.48-.81-.33-1.18-.48-.83-.31-1.78-.31-2.62-.6a3,3,0,0,0-1.61-.33,1.09,1.09,0,0,1-.92-.28c-.2-.34-.38-.18-.6-.18a4.09,4.09,0,0,1-.85-.15,5,5,0,0,0-.49-.2c-.22,0-.44,0-.66,0-.73-.07-1.45-.2-2.18-.22a14.54,14.54,0,0,0-2.19.11,1.65,1.65,0,0,0-1,.38,8.38,8.38,0,0,0-1.67,1.84,3,3,0,0,0,0,3.11c.14.25.31.49.43.75a1.53,1.53,0,0,0,1,.95c.52.17,1,.4,1.55.52a4.17,4.17,0,0,0,1.73.2c.91-.19,1.84.1,2.74-.36a6.76,6.76,0,0,1,1.84-.25c.69-.12,1.38-.29,2.07-.45.32-.07.76-.1.91-.31s.3-.19.51-.16a.77.77,0,0,0,.93-.35,2.36,2.36,0,0,0,.64,0c.56-.13,1-.53,1.67-.48.24,0,.49-.26.62-.33ZM24.24,41.76c.31,0,.75.13.89,0,.42-.43.9-.33,1.38-.41a2.3,2.3,0,0,0,1.67-1.06,1.51,1.51,0,0,1,.11-.22c.5-.57,1-1.13,1.52-1.72.28-.34.5-.73.75-1.1.44-.65.89-1.3,1.31-2,.54-.85,1-1.75,1.6-2.58.48-.68.46-.77-.29-1.13a2.48,2.48,0,0,1-1.37-1.11c-.16-.38-.29-.44-.66-.29-1.35.53-2.71,1-4.06,1.54-.88.36-1.73.8-2.6,1.17-.6.25-1.22.44-1.82.66a6.4,6.4,0,0,0-2.24,1.41,3.59,3.59,0,0,0-1.24,2.8,7,7,0,0,0,.21.88,4.22,4.22,0,0,0,2.15,2.51A4.45,4.45,0,0,0,24.24,41.76Zm15.65-9.57a1.33,1.33,0,0,0,.13.41c.43.7.86,1.4,1.31,2.08s.83,1.22,1.24,1.84.77,1.18,1.16,1.77c.09.13.21.24.31.36.31.39.78.75.9,1.2.2.73.86.87,1.29,1.24a2.8,2.8,0,0,0,1.91.52,11,11,0,0,0,2.75-.15c.25-.07.57,0,.79-.08a13.19,13.19,0,0,0,1.21-.79,3.67,3.67,0,0,0,1.31-1.75c0-.12.17-.23.16-.35a7.78,7.78,0,0,0-.09-1.6,2.36,2.36,0,0,0-.67-1.32c-.46-.39-.81-1-1.32-1.25-.92-.5-2-.7-2.86-1.27-1-.7-2.27-.77-3.32-1.37a4.27,4.27,0,0,0-2.33-.75c-.06,0-.12-.1-.19-.13a2.83,2.83,0,0,1-.81-.35c-.55-.48-.41.2-.6.32,0,0,0,.05-.07.07ZM31,26l0,0L31,26c.11,0,.27-.05.32-.12a2.31,2.31,0,0,1,1.25-1.11,1.19,1.19,0,0,0,.54-.42.92.92,0,0,0,.16-.69,19.27,19.27,0,0,0-1.13-2c-.43-.69-.9-1.36-1.36-2s-1-1.47-1.55-2.19c-.36-.47-.73-.93-1.13-1.36a9,9,0,0,0-.87-.75,3.74,3.74,0,0,0-2.56-.51,25.38,25.38,0,0,0-3.12.32.91.91,0,0,0-.55.3c-.36.52-.89.84-1.26,1.36a3.34,3.34,0,0,0-.57,2.81,2.63,2.63,0,0,0,.73,1.27,7.84,7.84,0,0,0,1.32,1.26,14,14,0,0,0,1.91.81c.64.3,1.25.67,1.9.95,1.33.55,2.68,1.06,4,1.58.68.25,1.37.46,2.05.69,0,0,0,0,.05-.06Zm22.58-7.27a2.84,2.84,0,0,0-.84-2.29,10.92,10.92,0,0,1-1-1,1.82,1.82,0,0,0-1.41-.67c-1-.06-2-.14-2.94-.21-.12,0-.33,0-.35.06-.17.44-.57.29-.89.37s-.41,0-.54.15c-.41.35-.74.79-1.17,1.11a10.63,10.63,0,0,0-1.77,2.19c-.63.78-1.17,1.65-1.73,2.48s-.94,1.41-1.37,2.13c-.09.16-.21.43.19.53a3.89,3.89,0,0,1,1,.42c.63.37,1.46.48,1.7,1.38,0,.1.52.2.73.12,2.5-1,5-2,7.49-3a4.77,4.77,0,0,0,2.13-1.65C53.16,20.18,53.76,19.54,53.55,18.75ZM36.8,45.08l2.65-.43c.11,0,.27,0,.33-.13.49-.68,1.35-1,1.69-1.86a3.9,3.9,0,0,0,.28-2.34c-.14-.65-.36-1.29-.56-1.94a15.16,15.16,0,0,0-.56-1.6c-.55-1.27-1.16-2.51-1.69-3.78-.12-.3-.26-.37-.51-.32a7.51,7.51,0,0,1-3.13-.11c-.3-.08-.51,0-.63.37A14.32,14.32,0,0,1,34,34.57c-.41.93-.85,1.86-1.26,2.8A12.78,12.78,0,0,0,32,39.1a6.39,6.39,0,0,0-.35,2.57,4.28,4.28,0,0,0,1.14,2.07,3.09,3.09,0,0,0,.88.73C34.65,45,35.74,44.87,36.8,45.08ZM31.16,14.7A11.77,11.77,0,0,0,31.43,16c.3.95.65,1.88,1,2.81.14.39.28.78.45,1.15.44,1,.91,1.94,1.34,2.93.14.32.26.44.66.35A6.07,6.07,0,0,1,37.79,23c.38.09.61-.07.77-.45.34-.81.78-1.58,1.1-2.39.57-1.48,1.12-3,1.59-4.46a2.94,2.94,0,0,0-.39-2.81c-.18-.23-.34-.47-.54-.68a7,7,0,0,0-1-.91,5,5,0,0,0-2.62-.51,18.08,18.08,0,0,0-3,.31.91.91,0,0,0-.52.25c-.36.34-.67.73-1,1.08A3,3,0,0,0,31.16,14.7ZM43.3,26.18c.06.8.14,1.55.15,2.31a3.63,3.63,0,0,1-.27.85c-.14.51,0,.69.52.74a17.87,17.87,0,0,1,1.78.3c.27.05.65.06.77.23.28.4.62.31,1,.29.12,0,.24,0,.35,0,.63.05,1.14.65,1.84.43,0,0,0,0,.05,0,1.27.19,2.55.43,3.83.56a11.35,11.35,0,0,0,2.09-.1,1,1,0,0,0,.58-.2c.53-.43,1-.91,1.52-1.36a3.06,3.06,0,0,0,1-2.45,3.88,3.88,0,0,0-.89-2.13,4.27,4.27,0,0,0-1.4-1.19c-.3-.18-.73-.11-1.09-.21a7.13,7.13,0,0,0-3-.1,9.81,9.81,0,0,1-3,.42,2.89,2.89,0,0,0-1.12.32,2.26,2.26,0,0,1-.41.15,1.21,1.21,0,0,1-.4-.09l0,.06.3.18L43.3,26l.26.13Zm-6.07-2.65a3.85,3.85,0,0,0-1.49.33A4.43,4.43,0,0,0,31.88,27a3.23,3.23,0,0,0,.41,2.66,3.94,3.94,0,0,0,1.81,1.82,6.24,6.24,0,0,0,1.42.33c.88.13,1.76.23,2.64.32.1,0,.21-.07.31-.11a2.37,2.37,0,0,1,.41-.17,4.93,4.93,0,0,0,.55,0,4.66,4.66,0,0,0,2.69-2.46,3.71,3.71,0,0,0-.91-4.19,8.25,8.25,0,0,0-1.12-.93c-.55-.32-1.25-.15-1.81-.57C38,23.48,37.59,23.57,37.23,23.53Z" transform="translate(-0.11 -0.04)"/><path class="cls-2" d="M48,45.45c-.85-1.41-2-2.65-2.84-4.13l.16-.14c.38.23.75.47,1.15.67.15.07.37,0,.53.07a4.88,4.88,0,0,0,.92.39,17,17,0,0,0,2.47.09,3.79,3.79,0,0,0,1-.4,6.93,6.93,0,0,0,2.24-1,4.58,4.58,0,0,0,1.61-1.88,4.93,4.93,0,0,0,.23-1.62,3.47,3.47,0,0,0-.91-2.2,10,10,0,0,0-.83-.76c-.17-.15-.36-.29-.54-.43.68-.48,1.08.13,1.57.25a10.12,10.12,0,0,1,1.9.78,11,11,0,0,0,1.82,1,5.66,5.66,0,0,1,1.71.83A8.2,8.2,0,0,1,61.62,38a11.16,11.16,0,0,1,1.06,1.55,2.61,2.61,0,0,1,.36.73,7.11,7.11,0,0,1,.34,1.92,6.48,6.48,0,0,1-.66,2.34,7.54,7.54,0,0,1-2.58,2.76,3.86,3.86,0,0,1-2.5.88c-.89,0-1.78.19-2.66.18s-1.69-.2-2.53-.3a5.15,5.15,0,0,1-2.39-.77,11.76,11.76,0,0,1-1.18-1.06Z" transform="translate(-0.11 -0.04)"/><path class="cls-2" d="M52,22.4c.24-.16.5-.31.72-.49a5.11,5.11,0,0,0,1.13-1,3.73,3.73,0,0,0,.54-3.54,3.44,3.44,0,0,0-2.15-2.29,7.33,7.33,0,0,1-1.84-.78,3.42,3.42,0,0,0-2.51-.41,4,4,0,0,0-.85.07,19.53,19.53,0,0,0-1.89.81c-.26.12-.46.34-.71.46a2.36,2.36,0,0,1-.61.12l-.06-.13c.67-.87,1.39-1.72,2-2.65.3-.48.93-.79.87-1.48,0,0,0,0,0,0,.89-.26,1-1.39,2-1.62a8.25,8.25,0,0,0,1.58-.83.65.65,0,0,1,.39-.06c.21,0,.39.17.48-.19,0-.1.34-.17.52-.18,1.33,0,2.66-.11,4-.1A4.58,4.58,0,0,1,57,8.39a10.13,10.13,0,0,1,1.56.66,5.93,5.93,0,0,1,1.66,1.27c.39.45.75.91,1.1,1.39a3.83,3.83,0,0,1,.79,2.09,7.63,7.63,0,0,1-.12,2,3.79,3.79,0,0,1-1.08,2,2,2,0,0,0-.58.8c-.23.68-.9.78-1.37,1.1a14,14,0,0,1-2.19,1.09c-1,.43-2,.8-3,1.22-.36.15-.69.38-1,.52a2.15,2.15,0,0,1-.62.08Z" transform="translate(-0.11 -0.04)"/><path class="cls-2" d="M19.66,34.41c-.3.39-.62.77-.89,1.19a3.42,3.42,0,0,0-.4,3.22,4.43,4.43,0,0,0,1.59,2c.27.19.6.29.88.46a6.42,6.42,0,0,0,4.6,1c.39-.06.74-.36,1.13-.46a6.56,6.56,0,0,0,1.95-1A4.17,4.17,0,0,0,30,39.48c0-.06.18-.06.38,0a9,9,0,0,0-.64.88,8.59,8.59,0,0,0-.48,1c0,.06,0,.17-.06.2-1,.61-1.4,1.75-2.12,2.61-.29.36-.74.65-.89,1.06-.3.79-1,1.17-1.58,1.62A3.6,3.6,0,0,1,21.76,48c-.08,0-.22,0-.25,0-.35.5-.81.37-1.3.3s-.79,0-1.18,0a11.17,11.17,0,0,1-4.5-.87,3.84,3.84,0,0,1-1.66-1.31c-.29-.46-.88-.74-1.17-1.21A7.13,7.13,0,0,1,11,43a9.8,9.8,0,0,1-.13-1.54,3.91,3.91,0,0,1,.8-2.36,7.67,7.67,0,0,1,2.25-2.36,11,11,0,0,1,2-1c.16-.08.28-.24.44-.31l3.17-1.28Z" transform="translate(-0.11 -0.04)"/><path class="cls-2" d="M15.12,22.22l-.3.08c.43,0,1-.1,1.3.12a2.38,2.38,0,0,0,1.05.4c.18,0,.37,0,.55,0a5,5,0,0,1,.5.18c.24.08.48.14.72.21l0,.08c-.54-.07-.94.61-1.54.28-.07,0-.24.1-.36.16l-.3.14a13,13,0,0,1-1.61.75,4,4,0,0,0-1.57,1.15,3,3,0,0,0-.71,1.63A5.37,5.37,0,0,0,13,29.53a3.25,3.25,0,0,0,1.48,1.81,6.73,6.73,0,0,0,2.24,1c.26.05.49.37.75.39.76.05,1.52,0,2.28,0a1.21,1.21,0,0,1,.63.13,7,7,0,0,0-1.68.43c-.87.49-1.84.25-2.74.58a16.92,16.92,0,0,1-3,.54l.64.08v.08H11.08a5.57,5.57,0,0,1-1.78,0,10.83,10.83,0,0,1-2.7-.89,11.51,11.51,0,0,1-1.88-1.61,6.42,6.42,0,0,1-1.41-2.2,4.34,4.34,0,0,1-.24-2.43,5.77,5.77,0,0,1,1.22-2.67,7.06,7.06,0,0,1,3.13-2.4A17.72,17.72,0,0,1,9.35,22a10.57,10.57,0,0,1,4.23.09,7.18,7.18,0,0,0,1.54,0Z" transform="translate(-0.11 -0.04)"/><path class="cls-2" d="M29.2,15.71l-.16.17c-.51-.32-1-.66-1.53-.93s-1-.22-1.29-.52-.85-.17-1.27-.18a7.56,7.56,0,0,0-3.17.32,13.2,13.2,0,0,0-2.2,1.08,3.89,3.89,0,0,0-1.34,4.43c.27.56.48,1.22,1.23,1.5.35.13.57.62.91,1a3,3,0,0,1-.76-.1c-.72-.28-1.44-.58-2.14-.9-1.34-.62-2.68-1.22-4-1.9a4.28,4.28,0,0,1-.92-.89,1.58,1.58,0,0,0-.12-.15,4.7,4.7,0,0,1-1.6-2.75,4.59,4.59,0,0,1-.21-1.41,4.48,4.48,0,0,1,.7-2.28c.38-.57.65-1.21,1.07-1.75a4.12,4.12,0,0,1,1.13-.89,5.87,5.87,0,0,1,1.69-.82c.54-.1,1-.6,1.64-.31.3.13.73-.08,1.1-.08.85,0,1.71,0,2.56,0a7.93,7.93,0,0,1,1.93.31,6.39,6.39,0,0,1,3.24,2.35c.52.67,1.15,1.24,1.67,1.91s.75,1.19,1.14,1.78C28.72,15.1,29,15.4,29.2,15.71Z" transform="translate(-0.11 -0.04)"/><path class="cls-2" d="M52.5,32.79a11,11,0,0,0,2.31-.19,14.84,14.84,0,0,0,2.24-1.08,5.07,5.07,0,0,0,.71-.31c1.72-1.31,2-2.78,1.38-4.82a3.8,3.8,0,0,0-2.07-2c-.58-.31-1.24-.4-1.79-.73A3.78,3.78,0,0,0,53,23.25V23.1a4.7,4.7,0,0,0,.51-.12l1.84-.64s0,0,0,0c.61.16,1.12-.34,1.64-.32a18.84,18.84,0,0,0,2.72-.27,19.78,19.78,0,0,1,3.44.16,7.37,7.37,0,0,1,2.88.95,7.1,7.1,0,0,1,1.23,1.11,3.53,3.53,0,0,1,1.09,1.5,9.48,9.48,0,0,1,.72,1.84A5.47,5.47,0,0,1,69,29.41a5.66,5.66,0,0,1-1,1.87,11.69,11.69,0,0,1-1.86,1.86,6.17,6.17,0,0,1-1.46.62c-.23.1-.45.23-.68.33a2.22,2.22,0,0,1-.58.2c-.95.05-1.91.1-2.86.11a6.43,6.43,0,0,1-2.5-.17c-.76-.34-1.55-.37-2.3-.63a6,6,0,0,0-1.13-.07,6.79,6.79,0,0,1-1.09-.22c-.39-.12-.76-.29-1.15-.43Z" transform="translate(-0.11 -0.04)"/><path class="cls-2" d="M30.43,41.26a2.63,2.63,0,0,1,.24.48,3.6,3.6,0,0,0,1.75,2.53c.49.31,1.16.41,1.47,1,.07.13.42.11.64.19a6.25,6.25,0,0,0,5.2-.46c.57-.25,1.11-.57,1.67-.86.06,0,.19-.05.19-.07,0-.59.73-.63.81-1.15a4.19,4.19,0,0,1,.31-.69,2.89,2.89,0,0,0,.3-1,4.86,4.86,0,0,0-.24-1.24,15.19,15.19,0,0,1-.48-1.88c.1.1.26.19.3.32.41,1.11.79,2.23,1.21,3.34.33.85.75,1.67,1.05,2.53A5.9,5.9,0,0,1,45.18,46a5.49,5.49,0,0,1-.28,2.9,9.7,9.7,0,0,1-1.22,1.94,5.79,5.79,0,0,1-3.33,2.05,11.71,11.71,0,0,1-4.57.26,8.8,8.8,0,0,0-1.36,0c-.19,0-.5,0-.53-.15-.16-.45-.53-.31-.83-.4A6.3,6.3,0,0,1,31.79,52c-.21-.12-.35-.38-.56-.53a6.33,6.33,0,0,1-1.85-2.23,5.07,5.07,0,0,1-.3-4,33.09,33.09,0,0,1,1.16-3.15A7.41,7.41,0,0,0,30.43,41.26Z" transform="translate(-0.11 -0.04)"/><path class="cls-2" d="M42.26,15.66a3.52,3.52,0,0,0-.77-3.46A13.31,13.31,0,0,0,39.77,11c-.2-.14-.35-.34-.56-.46a1.49,1.49,0,0,0-.6-.17,7.61,7.61,0,0,1-.94-.08l.41-.11c-.4-.06-.72-.11-1-.14a7.73,7.73,0,0,0-4.49,1.17c-.27.15-.57.26-.83.42a1.81,1.81,0,0,0-.36.37,6.27,6.27,0,0,0-.69.87A5.58,5.58,0,0,0,30.25,14,7.32,7.32,0,0,1,30,15c-.33-.87-.67-1.74-1-2.62a19.72,19.72,0,0,1-.8-2.43,4.31,4.31,0,0,1,.58-3.5c.27-.39.36-.9.63-1.28a6.36,6.36,0,0,1,.92-.77A5.77,5.77,0,0,1,32.65,3a12.58,12.58,0,0,1,5.82-.28c.12,0,.27-.07.41-.08a.8.8,0,0,1,.34.07c.15.06.29.22.43.23a2.61,2.61,0,0,1,1.66.67,11.25,11.25,0,0,1,1,.76A12,12,0,0,1,44,6.32a4.44,4.44,0,0,1,.68,2.76,8.35,8.35,0,0,1-.83,3,5.11,5.11,0,0,0-.23.76c-.3.85-.59,1.71-.91,2.56C42.65,15.46,42.49,15.51,42.26,15.66Z" transform="translate(-0.11 -0.04)"/><path class="cls-2" d="M30.75,26.61l.13,2.82c-.13.07-.38.35-.62.33-.63-.05-1.11.35-1.67.48a2.36,2.36,0,0,1-.64,0,.77.77,0,0,1-.93.35c-.21,0-.32-.11-.51.16s-.59.24-.91.31c-.69.16-1.38.33-2.07.45a6.76,6.76,0,0,0-1.84.25c-.9.46-1.83.17-2.74.36a4.17,4.17,0,0,1-1.73-.2c-.53-.12-1-.35-1.55-.52a1.53,1.53,0,0,1-1-.95c-.12-.26-.29-.5-.43-.75a3,3,0,0,1,0-3.11,8.38,8.38,0,0,1,1.67-1.84,1.65,1.65,0,0,1,1-.38A14.54,14.54,0,0,1,19,24.23c.73,0,1.45.15,2.18.22.22,0,.44,0,.66,0a5,5,0,0,1,.49.2,4.09,4.09,0,0,0,.85.15c.22,0,.4-.16.6.18a1.09,1.09,0,0,0,.92.28,3,3,0,0,1,1.61.33c.84.29,1.79.29,2.62.6.37.15.91,0,1.18.48C30.16,26.74,30.48,26.64,30.75,26.61Z" transform="translate(-0.11 -0.04)"/><path class="cls-2" d="M24.24,41.76a4.45,4.45,0,0,1-2.69-.63,4.22,4.22,0,0,1-2.15-2.51,7,7,0,0,1-.21-.88,3.59,3.59,0,0,1,1.24-2.8,6.4,6.4,0,0,1,2.24-1.41c.6-.22,1.22-.41,1.82-.66.87-.37,1.72-.81,2.6-1.17,1.35-.54,2.71-1,4.06-1.54.37-.15.5-.09.66.29a2.48,2.48,0,0,0,1.37,1.11c.75.36.77.45.29,1.13-.58.83-1.06,1.73-1.6,2.58-.42.66-.87,1.31-1.31,2-.25.37-.47.76-.75,1.1-.49.59-1,1.15-1.52,1.72a1.51,1.51,0,0,0-.11.22,2.3,2.3,0,0,1-1.67,1.06c-.48.08-1,0-1.38.41C25,41.89,24.55,41.76,24.24,41.76Z" transform="translate(-0.11 -0.04)"/><path class="cls-2" d="M39.89,32.19l2.21-1.35s0-.06.07-.07c.19-.12,0-.8.6-.32a2.83,2.83,0,0,0,.81.35c.07,0,.13.13.19.13a4.27,4.27,0,0,1,2.33.75c1,.6,2.29.67,3.32,1.37.85.57,1.94.77,2.86,1.27.51.28.86.86,1.32,1.25a2.36,2.36,0,0,1,.67,1.32,7.78,7.78,0,0,1,.09,1.6c0,.12-.12.23-.16.35a3.67,3.67,0,0,1-1.31,1.75,13.19,13.19,0,0,1-1.21.79c-.22.11-.54,0-.79.08a11,11,0,0,1-2.75.15,2.8,2.8,0,0,1-1.91-.52c-.43-.37-1.09-.51-1.29-1.24-.12-.45-.59-.81-.9-1.2-.1-.12-.22-.23-.31-.36-.39-.59-.77-1.19-1.16-1.77s-.84-1.22-1.24-1.84S40.45,33.3,40,32.6A1.33,1.33,0,0,1,39.89,32.19Z" transform="translate(-0.11 -0.04)"/><path class="cls-2" d="M31,26l.19.08s0,.06-.05.06c-.68-.23-1.37-.44-2.05-.69-1.35-.52-2.7-1-4-1.58-.65-.28-1.26-.65-1.9-.95a14,14,0,0,1-1.91-.81,7.84,7.84,0,0,1-1.32-1.26,2.63,2.63,0,0,1-.73-1.27,3.34,3.34,0,0,1,.57-2.81c.37-.52.9-.84,1.26-1.36a.91.91,0,0,1,.55-.3,25.38,25.38,0,0,1,3.12-.32,3.74,3.74,0,0,1,2.56.51,9,9,0,0,1,.87.75c.4.43.77.89,1.13,1.36.53.72,1,1.46,1.55,2.19s.93,1.34,1.36,2a19.27,19.27,0,0,1,1.13,2,.92.92,0,0,1-.16.69,1.19,1.19,0,0,1-.54.42,2.31,2.31,0,0,0-1.25,1.11c-.05.07-.21.08-.32.12L31,26Z" transform="translate(-0.11 -0.04)"/><path class="cls-2" d="M53.55,18.75c.21.79-.39,1.43-.84,2.08a4.77,4.77,0,0,1-2.13,1.65c-2.49,1-5,2-7.49,3-.21.08-.71,0-.73-.12-.24-.9-1.07-1-1.7-1.38a3.89,3.89,0,0,0-1-.42c-.4-.1-.28-.37-.19-.53.43-.72.9-1.43,1.37-2.13s1.1-1.7,1.73-2.48a10.63,10.63,0,0,1,1.77-2.19c.43-.32.76-.76,1.17-1.11.13-.11.36-.1.54-.15s.72.07.89-.37c0-.06.23-.06.35-.06,1,.07,2,.15,2.94.21a1.82,1.82,0,0,1,1.41.67,10.92,10.92,0,0,0,1,1A2.84,2.84,0,0,1,53.55,18.75Z" transform="translate(-0.11 -0.04)"/><path class="cls-2" d="M36.8,45.08c-1.06-.21-2.15-.07-3.09-.61a3.09,3.09,0,0,1-.88-.73,4.28,4.28,0,0,1-1.14-2.07A6.39,6.39,0,0,1,32,39.1a12.78,12.78,0,0,1,.7-1.73c.41-.94.85-1.87,1.26-2.8a14.32,14.32,0,0,0,.67-1.63c.12-.37.33-.45.63-.37a7.51,7.51,0,0,0,3.13.11c.25,0,.39,0,.51.32.53,1.27,1.14,2.51,1.69,3.78a15.16,15.16,0,0,1,.56,1.6c.2.65.42,1.29.56,1.94a3.9,3.9,0,0,1-.28,2.34c-.34.91-1.2,1.18-1.69,1.86-.06.09-.22.11-.33.13Z" transform="translate(-0.11 -0.04)"/><path class="cls-2" d="M31.16,14.7a3,3,0,0,1,1-2.25c.35-.35.66-.74,1-1.08a.91.91,0,0,1,.52-.25,18.08,18.08,0,0,1,3-.31,5,5,0,0,1,2.62.51,7,7,0,0,1,1,.91c.2.21.36.45.54.68a2.94,2.94,0,0,1,.39,2.81c-.47,1.5-1,3-1.59,4.46-.32.81-.76,1.58-1.1,2.39-.16.38-.39.54-.77.45a6.07,6.07,0,0,0-2.93.26c-.4.09-.52,0-.66-.35-.43-1-.9-1.95-1.34-2.93-.17-.37-.31-.76-.45-1.15-.33-.93-.68-1.86-1-2.81A11.77,11.77,0,0,1,31.16,14.7Z" transform="translate(-0.11 -0.04)"/><path class="cls-2" d="M43.3,26.18l.26-.05L43.3,26l4.09-.81-.3-.18,0-.06a1.21,1.21,0,0,0,.4.09,2.26,2.26,0,0,0,.41-.15A2.89,2.89,0,0,1,49,24.57a9.81,9.81,0,0,0,3-.42,7.13,7.13,0,0,1,3,.1c.36.1.79,0,1.09.21a4.27,4.27,0,0,1,1.4,1.19,3.88,3.88,0,0,1,.89,2.13,3.06,3.06,0,0,1-1,2.45c-.51.45-1,.93-1.52,1.36a1,1,0,0,1-.58.2,11.35,11.35,0,0,1-2.09.1c-1.28-.13-2.56-.37-3.83-.56,0,0,0,0-.05,0-.7.22-1.21-.38-1.84-.43-.11,0-.23,0-.35,0-.35,0-.69.11-1-.29-.12-.17-.5-.18-.77-.23a17.87,17.87,0,0,0-1.78-.3c-.49,0-.66-.23-.52-.74a3.63,3.63,0,0,0,.27-.85C43.44,27.73,43.36,27,43.3,26.18Z" transform="translate(-0.11 -0.04)"/><path class="cls-2" d="M37.23,23.53c.36,0,.8-.05,1.05.13.56.42,1.26.25,1.81.57a8.25,8.25,0,0,1,1.12.93,3.71,3.71,0,0,1,.91,4.19,4.66,4.66,0,0,1-2.69,2.46,4.93,4.93,0,0,1-.55,0,2.37,2.37,0,0,0-.41.17c-.1,0-.21.12-.31.11-.88-.09-1.76-.19-2.64-.32a6.24,6.24,0,0,1-1.42-.33,3.94,3.94,0,0,1-1.81-1.82A3.23,3.23,0,0,1,31.88,27a4.43,4.43,0,0,1,3.86-3.13A3.85,3.85,0,0,1,37.23,23.53Z" transform="translate(-0.11 -0.04)"/></svg>