<svg id="Layer_1" data-name="Layer 1" xmlns="http://www.w3.org/2000/svg" viewBox="0 0 1910.96 299.92"><defs><style>.cls-1{fill:#fdfefd;}.cls-2{fill:#4cd34c;}.cls-3{fill:#4dd34d;}.cls-4{fill:#4ed34e;}.cls-5{fill:#4dd24d;}.cls-6{fill:#4ed24e;}.cls-7{fill:#4fd34f;}.cls-8{fill:#4cd24c;}.cls-9{fill:#54d454;}.cls-10{fill:#66d866;}.cls-11{fill:#58d558;}.cls-12{fill:#5cd65c;}.cls-13{fill:#e4f8e4;}.cls-14{fill:#50d350;}.cls-15{fill:#d6f4d6;}.cls-16{fill:#d8f5d8;}.cls-17{fill:#ddf6dd;}.cls-18{fill:#8fe28f;}.cls-19{fill:#c5f0c5;}.cls-20{fill:#f9fdf9;}.cls-21{fill:#b3ebb3;}</style></defs><title>logo</title><path class="cls-1" d="M6,691V391.08H1917V691ZM1019.94,477.94l-2,.05c.88-5.52-1-7.85-6.2-7.88-5,0-6.73,2-6.86,7.86-1.21-.81-2.32-1.94-3.65-2.37-3.53-1.13-7.34-1.86-9.87,1.74s-.39,6.07,2.86,7.94c.42.25.49,1.1.72,1.67-3.66-1.54-7.26-1.56-9.81,1.77a5.5,5.5,0,0,0-.25,4.88c2,3.64,5.43,3.82,9.07,2.75l0,1.6c-4.16,3.5-4.47,7.47-.45,9.29,3.4,1.54,7,1.74,9.89-1.48A24.92,24.92,0,0,1,1007,503c-2.6,6-.75,9,5.59,9,5.4,0,6.76-1.75,6.41-8.13,1.25,1,2.44,2.15,3.75,3.09,3.08,2.2,8.92,1.52,10.65-1.39,2.33-3.91,0-6.07-3.31-7.7l-.13-1.32c5.22.55,9.28-1.61,9-5.1-.43-4.67-3.85-5.55-7.89-5.43a9.27,9.27,0,0,1-2.91-.95c3.55-.41,5.92-2.65,4.72-5.88-.72-1.94-3.91-3.87-6.15-4.09S1022.19,476.9,1019.94,477.94ZM436.35,419.87,437,417c3.83-8.52,3.17-12.63-2.79-17.17-4.88-3.73-15.77-3.61-20.74.23-5.37,4.14-6,8.89-2.3,16.94.07,2.85,1.42,2,2.85,1,1.49,4.63,3.07,9.24,4.41,13.92.29,1-.31,2.3-.5,3.47l-10.69-18.81a55.41,55.41,0,0,0-4.35-5.37c-4.89-4.72-17.77-4.62-22.68,0a11,11,0,0,0-2.31,13.59c2.37,4.12,12.81,9.66,16.19,8.57a6.15,6.15,0,0,0,1.22-.69L408,438.94l0,1.24-18.54-2.35,1-3.5c-5.52-.43-10.78-1.4-16-1.11-8.07.45-11.92,5.23-11.51,13,.29,5.68,6.16,10.79,13,10.39,5.39-.31,10.72-1.71,16.08-2.62l3-2,10.8-2.22L407,451,393,458c-.67-.53-1.55-1.66-2-1.51a46.31,46.31,0,0,0-6.36,2.83c-6.2,3.25-8.69,7.66-7.51,13.1,1.09,5,5.9,8.8,12.08,9.48,10.46,1.14,16.14-2.5,21.81-13.95.39-.44.79-.87,1.19-1.31l-1.3-.08L419,453l1.25,1.3c-1.77,5.54-3.53,11.08-5.34,16.61-.05.15-.75.08-1.15.12l-.23-.75-.8.61c-4.75,9.8-2.19,17.45,6.81,19.69,2.52.62,5.28.37,7.92.39,5.47,0,9.82-2.07,12-7.25,2.09-5,1.1-9.66-2.43-13.76l-.52-.71-.36.73L435,472h-2c.27-1.88,1.22-4,.67-5.6-1.56-4.59-3.73-9-5.66-13.44,0-.32,0-.63,0-.95l3.8-.35c.25,1.41.11,3.06.8,4.2,2.31,3.82,4.9,7.46,7.39,11.17l2,4c5.05,9.85,11.62,13.12,22.44,10.72a11.85,11.85,0,0,0,9.35-9.39c1.06-4.74-1.13-8.54-5.13-11-3.38-2.07-7.07-3.64-10.62-5.43,0-.31,0-.62,0-.92,4.76.38,9.52,1.12,14.27,1.06,6.49-.07,12.51-5.77,12.54-11.23,0-5.9-5.27-11.55-12-11.74-5.26-.16-10.54.79-15.81,1.25v-1.18c2.27-1,4.58-1.94,6.81-3,5.66-2.76,8.69-7.62,7.86-12.46-.9-5.22-6.62-9.84-12.64-10.21-9.83-.62-15.82,3.09-20.21,12.52ZM643.61,514.4c-18.06-5.9-33.67-.68-46.3,15.19-16.6,20.85-15.69,55.67,17.47,66.56,1.15.38,2.44,2.94,2.28,4.32-1.5,13-3.3,26-5.14,39.9,1-.13,3,.1,4.55-.67,4.44-2.25,8.59-5.08,13-7.37,12.51-6.46,25.41-11.64,39.86-11.4,9.84.16,16.64,7.7,14.17,17.22a47.13,47.13,0,0,1-8.24,16.74c-11.52,14.71-27.44,20.38-45.76,20.1-12.53-.2-21.33-6.28-25.9-17.71-4.38-11-3.65-21.51,5.23-30.47.69-.7.66-2.11,1-3.2-1,.07-2.39-.26-3.06.26-4.93,3.89-10.48,7.33-14.41,12.08a20.88,20.88,0,0,0,1.84,28.61c4.23,4.08,9.19,8.22,14.6,10.1,24.64,8.56,47.6,4.72,67.91-11.87,10.69-8.72,17-19.91,16.31-34.27-.81-16.38-11-25.61-27-22.37-10.26,2.08-20,6.71-29.86,10.67-5.47,2.21-10.54,5.41-16.37,8.45.85-8.93,1.51-17,2.51-25.1a4.43,4.43,0,0,1,3.1-2.85c11.69-1.11,20.55-7.35,28.2-15.56,18.17-19.49,11.06-48.32-13.46-55.2-9.36-2.63-17.44-1-23.81,6.79-3.39,4.16-3.13,8.61-1,13.1A13.28,13.28,0,0,0,629,553.81c5-.65,9-3.23,10.52-8a8.64,8.64,0,0,0-1.52-7.2c-1.29-1.42-4.72-1.86-6.8-1.28-1.56.44-2.48,3.18-3.53,4.65l5.88,1.3c-.49,1.83-.53,4-1.58,5.41-2.29,3.11-5.17,3-7.31-.23a14.44,14.44,0,0,1-1.89-13.34c2.07-5.73,6.92-8,12.79-6.31s9.6,5.83,12.5,10.82c7.74,13.31,4.11,33.7-8,46-12,12.14-27.58,10.3-34.78-5.12-8.17-17.5-7.86-35.32,3.13-51.85,8.71-13.11,23.71-16.11,37.83-8.46,1.46.79,3.58.35,4.54.42-.31-8.29-.93-15.54-.72-22.76.13-4.81,2.16-9.48,7.21-11,2.44-.72,6.93-.32,7.93,1.23,1.75,2.71,2.14,6.76,1.82,10.13-.12,1.26-3.8,2.19-6.16,3.42.65,2.49,2.72,3.58,6.1,2.78,4.42-1,7.66-3.48,8.84-7.88,1.23-4.55-.87-8.08-4.41-10.86-5.68-4.48-14.63-4.7-21.66-.54A17,17,0,0,0,641.39,503c.65,3.57,2.08,7,3.15,10.48Zm277.2,109.42c-.43-1-.95-1.93-1.29-2.94-12.07-36.57-22.44-73.51-24.8-112.24-.09-1.5-1.17-3.65-2.4-4.25-4.43-2.16-9.12-3.79-15-6.15-7.34,19.73-15,38.85-21.55,58.32s-12.17,39.3-18.46,59.88c-9.65-48.23-18.87-95.54-35.37-141.69l25-4.74-2.17-5.93c-23.3,4.07-45.92,8.59-68.15,16.75l1.52,5.25c5-1.5,9.6-2.52,13.9-4.26,5-2,7.53-.54,10,4.17,15,28,25.82,57.67,35,87.94,6.14,20.32,11,41,16.49,61.59,7.95-1.61,7.84-1.63,9.58-9.72,6-27.85,14-55.11,25.23-81.35,2.46-5.75,5.22-11.37,8.15-17.7.66,2,1.1,3.08,1.38,4.21,9.32,36.72,22.7,71.95,38.83,106.19,1.71,3.63,3.5,4.81,7,3.28,3.14-20,10.39-38.42,18.88-56.29,8-17,17.42-33.3,26.06-50C976,519.7,980,504.39,979,488c-.69-11.16-7.56-19.18-17.52-20.7-14.09-2.15-30.53,12.89-29.65,27.13a13.72,13.72,0,0,0,8.64,11.82c7,2.47,18.76-2.79,21.61-9.67,2.37-5.73-.83-10.1-7.07-9.59.32,2.13,1.13,4.33.81,6.36s-1.26,5-2.8,5.72a8.62,8.62,0,0,1-6.92-.31c-4.86-2.63-6.59-10.45-4.25-16.56,1.91-5,6.68-7.7,12.43-7,9.7,1.14,18.77,11.35,18.47,21.09a75.16,75.16,0,0,1-1.33,11.38c-2.1,11.3-8.54,20.58-14.9,29.67C938.27,563.43,927.23,592.38,920.81,623.82ZM1542,545.51l30.71,80.6,1.67-.08c10.94-19.19,22.28-38.16,32.71-57.62,7.85-14.65,10.49-30.78,9.91-47.36-.27-7.85-2.23-15.19-8.18-20.83-4.31-4.1-9.67-4.58-14.61-1.28a23.33,23.33,0,0,0-10.51,16.29,13.32,13.32,0,0,0,6.74,14.33c3.87,2.23,7.67,1,11.56-3.75,2.53-3.07,3.31-6.16,1.55-8.39-3.23,1.51-5.65,3.6-8,3.51-3.37-.14-6.48-8.23-5.06-11.73,1.32-3.27,6-4.79,9.86-2.49,2.6,1.55,5.4,3.87,6.54,6.52a47.27,47.27,0,0,1,4,14.74c1,12-2.38,23.39-6.83,34.45-6.52,16.2-16.59,30.14-27.54,44.48-11.6-28.3-15.83-57.48-21-86.76l16.72-1.89c-.25-2.67-.45-4.85-.58-6.35l-48.6,5.17c.12,1.28.28,3,.43,4.48h14.32c-1.7,20.87-18.61,83.31-25.9,95.33-9.73-34.11-13.73-69.3-25.2-102.74L1447,539.08l3.12,4.48,18.67-12c17.42,32.34,25.61,67.35,38.31,100.31,5.16.67,7.48-1.21,9-5.93C1524.49,599,1533.33,572.15,1542,545.51Zm-359.4-91.25c-1.5,30.69-3,60.59-4.49,91.75-2.13-2.61-3.25-4-4.44-5.43-8.34-9.74-19-13-30.42-9.31-21.21,6.81-37,30.61-35,52.77,2,22.74,17.33,40,38.62,43.63,9.94,1.72,18.12-1,24.2-9.21,5.89-7.92,4.78-16.37,1-24.61-3.58-7.89-11.2-11.16-19-8.8A16.29,16.29,0,0,0,1142,602.53a12.48,12.48,0,0,0,8.9,10.35,8.48,8.48,0,0,0,9.54-3.88,10,10,0,0,0,1.12-7c-.32-1.45-2.81-2.42-4.06-3.39-1.84,2.87-2.71,5.7-4.54,6.62-1.37.68-5.14-.63-5.73-2-.75-1.72-.09-4.95,1.2-6.51,3.48-4.22,9.41-4.17,15-.54,6.21,4.06,8.43,10.07,6,16.29a17.36,17.36,0,0,1-20.59,10.73c-6.82-1.57-12.19-5.51-14.71-11.69-3.29-8.06-6.23-16.52-7.54-25.08-2.39-15.68.54-30.55,11-43.2,5.85-7.09,14.15-9.68,21.82-7.1,8.3,2.79,17.88,14.13,18.07,21.52.29,11.65.09,23.33.88,34.94a257.48,257.48,0,0,0,3.93,30.58c1,5.2,4.21,9.71,10.21,11.32,1.15-1.59,2.2-3,3.24-4.46-8-7.16-10.48-11.88-9.94-23.42,1.1-23.26,2-46.58,4.5-69.72,2.8-26.28,7.22-52.39,10.88-78.58.55-4,1.85-7,6.52-7.13,3.7-.11,3.91-2.09,2.82-4.43-12.63.88-24.89,1.82-37.17,2.55-3.71.22-3.42,2-2.5,4.9ZM105,512.79c2.54,3.88,5.72,4.25,9.15,2.11,5.74-3.59,6.49-13.83,1.5-18.43-5.16-4.77-13.35-5.6-20-2-5.81,3.1-8.88,9.45-8,16.43,1.55,11.65,14.75,20.24,27.48,17.81a36.51,36.51,0,0,0,23.67-15.44c6-8.58,6.18-17.83.89-26.81A34.81,34.81,0,0,0,118.4,470.1c-17.59-4.8-34-2.14-48.81,8.76-19.53,14.41-30,34.72-36.7,57.39-8,26.94-3,51.43,14.57,73.18,12.33,15.28,26.95,27.42,47.66,29,36.94,2.75,54.91-25.06,54.39-55.11l-12.42-.69c0,7.22.24,14-.05,20.78-.61,14.66-9.45,25.66-23,28.19a43.42,43.42,0,0,1-27.74-3.81C71.87,620.6,62.76,608.49,56,594.37c-7.86-16.5-9.86-34.12-8.93-52.11.86-16.89,5.17-32.82,14.78-47,10.43-15.42,24.68-23.34,43.53-22.35,11,.57,20.78,8.88,23.45,20,2.76,11.44-2.6,25.75-11.63,30.75-5.25,2.9-10.63,2.89-15.55-.62-4.27-3-8.06-6.66-7-12.77,1.13-6.28,5.29-10,11-11.69,2-.59,5.64.26,6.8,1.78,2,2.69,2.23,6.39-1.19,8.84C109.46,510.48,107.34,511.45,105,512.79ZM520.7,616.08c5.06,3.89,9.21,3.31,12.29.93,1.88-1.45,3-5.09,2.88-7.71-.11-4.24-4-5.38-7.51-6a21.21,21.21,0,0,0-7.45-.14c-5.83,1.1-10.75,4-13,9.71s.59,10.4,4.32,14.45c7,7.56,16,9.12,24.86,3.87a45.67,45.67,0,0,0,10.68-8.87,81.38,81.38,0,0,0,17.87-33.64c7-26.5-1.22-49.86-22.31-63.61-18.69-12.18-39.5-8.09-51.88,10.36C489,539,487.2,543,485.1,546.74c-.56,1-1.15,2-1.73,3l-.78-.31c.6-13.16,1.2-26.32,1.78-39.28L449.11,521c4.36,6.42,10.43.31,15.12,2.16,6,18.52,12.08,91.22,8.68,104.8l-15.66-1.07c-.37,2.14-.65,3.72-1,5.74,12.62.61,24.81,1.61,37-2.92-.63-1.85-1.14-3.36-1.75-5.14L479,627.25c0-1.89-.08-3.19,0-4.49,1.09-15.44,2.63-30.87,3.18-46.33a63.86,63.86,0,0,1,14.58-38.94c15.69-19.42,34.85-17.7,47.23,4a49.6,49.6,0,0,1,6.83,26.24c-.42,16.13-.33,32.46-6.88,47.59a33,33,0,0,1-9.62,12.23c-4.93,3.88-12.48,2.48-15.42-1.48-3.26-4.42-2.6-14,1.57-17.66a6.05,6.05,0,0,1,4.9-1.09c1.14.32,2.25,2.31,2.54,3.73C528.82,615.63,525.42,616,520.7,616.08Zm1176.83-11.21c-.42,1.33-.44,2.8-1.18,3.4-1.54,1.27-3.48,2.94-5.21,2.89-3.24-.09-4.71-2.91-3.7-5.73a10.76,10.76,0,0,1,4.6-5.4c4.71-2.58,13.88.77,17.74,6,3.21,4.31,2.87,10.62-1.24,15.17-6.64,7.36-15,10.46-24.77,8.35-15.55-3.36-23.8-14.47-28.59-28.55-4.33-12.77-3.72-25.9-1.5-39,2-11.56,6-22.18,14.58-30.53,8.13-7.9,20.1-9.23,28.83-3.1a30.07,30.07,0,0,1,12.78,20.13c2.12,12.66-4.33,22.66-15.7,24.17a36.17,36.17,0,0,1-23.14-4.43c-6.85-3.91-8.23-10-3.56-16.34,1-1.34,3.66-2.85,4.76-2.39a11.06,11.06,0,0,1,5.44,5c.53,1.11-1.41,3.56-2.55,5.2-.58.84-1.84,1.21-4.36,2.74,3.33,1,5.44,2.35,7.27,2a8.55,8.55,0,0,0,7.32-8.35,10.58,10.58,0,0,0-4-7.64c-7.36-5.19-18.63-1.86-22.73,6.15s-.74,16,8.76,19.37c13.09,4.63,26.52,5.14,39.45-.56a36.21,36.21,0,0,0,11.52-8.48,21.79,21.79,0,0,0,.87-28.79A42.8,42.8,0,0,0,1694.54,521c-15.69-3.26-28.18,2.88-39.51,13.14-30.71,27.8-26.17,73.43,9.53,94.3,15.21,8.89,33,8.69,45.22-.51,10.58-8,10.75-24.5.13-32.4-6.14-4.57-13-5-19.79-1.5-5.68,2.92-7.73,8-7.14,14.22.5,5.25,3.8,8.39,8.41,10.2,4,1.58,7.21-.39,9.78-3.2C1704.92,611.15,1703.3,606.1,1697.53,604.87ZM1401.83,521c.09-.46.19-.92.28-1.38-1.33-.28-2.78-1-4-.75-9.74,2.35-18.15,7.27-25.65,13.83-36.17,31.62-24.29,75,8.36,93,14.87,8.2,30.39,9,44.7-1.57,18.92-14,28.87-32.72,27.41-56.71-1.21-19.86-19.69-40.06-39.26-43.06-10.23-1.57-17.73,3.1-23.73,10.76-5.45,7-5.9,14.69-2.42,22.59,4.06,9.21,14.39,11.37,21.09,3.81a21.33,21.33,0,0,0,4.77-13c0-2.85-3.56-6.87-6.51-8.24-2.46-1.14-6.79.06-9.51,1.6-3.12,1.77-3.21,5.45-.87,8.3s4.91,2,7.06-.61c-3.16-3.85-3.36-6.07-.59-6.31a7.69,7.69,0,0,1,5.37,1.79,6.25,6.25,0,0,1,1.37,4.93c-.61,3.63-7.21,7.63-11.46,7.41s-8.7-4.5-9.23-9.11c-1.22-10.64,8.82-20.24,19.39-18.76,10.24,1.44,16.57,7.94,21.5,16.22,12.34,20.74,8.86,52.32-7,71.23-13.8,16.49-33,10.92-42.21.46-7.89-9-11.54-19.65-13.38-31.18C1362.7,557.12,1376,527.73,1401.83,521ZM193,552.56c-2.31-1-4.26-1.51-5.64-2.68-.42-.36.35-3.38,1.2-3.75,1.78-.77,4.22-1.25,5.93-.61a8.07,8.07,0,0,1,4.42,4.32c1.57,4.53-.41,8.38-3.6,11.72-3.43,3.61-7.33,6-12.42,4.33-4.33-1.41-6.31-5.16-6.45-9.28-.32-9.94.87-19.75,6.93-28.06,5.73-7.85,14.26-9.77,23.2-8.38,7.79,1.22,10,8.11,11.53,14.73,4.21,18,1.94,35.37-5.89,52a6.82,6.82,0,0,1-4.73,3.09c-6.11.68-12.27.86-18.42,1.14-7.58.34-14.36,2.71-20,7.81-5.15,4.62-7.11,10.28-5.31,17.09a18,18,0,0,0,24,12.17c5.51-2.06,10.66-5.08,16.38-7.87v15.24H209c-.9-14.93,3.07-28.56,9.54-41.49,4.45-8.92,9.92-17.36,14-26.45,5.65-12.68,6-25.89.36-38.75s-16.09-18.64-29.1-16.9c-16.82,2.26-37.11,26.26-36.59,43.28A15.42,15.42,0,0,0,180.88,570c10.37,1.36,23.76-7.21,26.27-17.33a12.37,12.37,0,0,0-1-8.49c-3.93-6.59-19-6.42-23.19,0-.89,1.34-2.07,3.33-1.66,4.51.89,2.57,2.2,5.8,4.32,6.95C188.53,557.21,191.81,556.06,193,552.56Zm1075.33-68.71,1.16.32c.77-1.8,2.54-3.95,2.07-5.32a8.83,8.83,0,0,0-4.67-4.58c-4.24-1.77-10.65,1.28-12.73,5.49-2,4,.07,10.82,4.35,13.11a18.14,18.14,0,0,0,18.18-.3c6-3.34,10.82-7.89,11-15.53.23-12.24-7.08-21.51-19-24.07-25.54-5.5-50.44,17.86-46,43.9,2.45,14.38,6.61,28.46,10,42.69,1.25,5.24,2.44,10.5,3.72,16l-19.1,1.82V564l20.73-2.47c1.72,23,3.39,45.34,5.11,68.38h-15.38v6.34l43.48-4.93c-.54-2.77-.9-4.59-1.21-6.19l-21,4.34c-1-23.6-2-46.15-3-68.88l34.93-5V549l-35.89,6.23c-1-8.21-1.84-15-2.5-21.75-1.53-15.89-3.3-31.77-4.29-47.7-.57-9.12,3-17.28,9-24.21,5.27-6.05,12.77-8.18,19.31-5.52,11.18,4.53,16,22.44,8.62,32-2.6,3.34-5.87,4.93-10,3a8.1,8.1,0,0,1-4-10.18c.53-1.49,2.23-2.55,3.4-3.81a36.76,36.76,0,0,1,2.82,3.69A14.74,14.74,0,0,1,1268.28,483.85ZM376.68,600.62A19.59,19.59,0,0,1,374,604.2c-2.12,1.79-5.34,1.93-5.27-1a15.47,15.47,0,0,1,4-9.91c3-2.88,6.18-.21,8.31,2.62,5.24,7,3.86,14.61,1.42,22-3.92,11.85-16.57,15.4-26,7.06a28.88,28.88,0,0,1-7.33-11.53c-3-8.16-2.19-16.76-.63-25.16q6-32.37,12.46-64.67a5.42,5.42,0,0,1,3.21-3.45c6.09-1.63,12.28-2.9,18.46-4.16,4.48-.91,9-1.58,14-2.44-.74-2.95-1.31-5.24-1.93-7.7l-32.38,8.33c.92-11.48,1.82-22.65,2.78-34.64l-21.2,3.58c.55,12.58,1.08,24.63,1.6,36.6l-22.79,5.54v6.86l22.11-6.19c0,3.2.19,6,0,8.8-1.68,21.57-3.62,43.11-5.1,64.69-.7,10.19,2.11,19.37,9.9,26.66s25.73,10.93,34.17,1.66c5.18-5.69,8.87-12.12,10.07-19.72.75-4.76,1.56-10.17-3.17-13.3a50,50,0,0,0-14.54-7c-6.1-1.59-13,2.8-15.43,8.53-1.51,3.56-1.79,7.12,1.16,10.22a11,11,0,0,0,10.89,3.5C376.25,609.13,378.06,604.84,376.68,600.62Zm684.46-145c0,2.4,0,4.21,0,6-.24,14.48-.08,29-.85,43.43-.93,17.6-2.27,35.2-4.12,52.72-2.13,20.17-5,40.26-7.58,60.38-1.44,11.18,8,22,20.39,19,9.72-2.36,18-6.92,24.5-14.44a21.61,21.61,0,0,0,5.36-16.66c-.8-8.4-7.7-15.29-14.74-14.84-9,.58-16.59,8.45-16,16.61.35,5.06,3.15,7.82,7.89,7.77,4.4,0,6.64-2.87,6.66-8.89-1.72.91-3.17,2.08-4.8,2.44s-4.49.51-4.94-.29a6.39,6.39,0,0,1,.07-5.39,8,8,0,0,1,4.63-3.28c6.87-1.82,12.05,2.45,12.25,9.74.32,11.81-9.34,21.93-21.83,23.07-4.23.39-7.29-1.17-10-4.32-6.07-7-5.42-15-3.51-23.19,4.1-17.47,9.33-34.74,12.34-52.4,5.38-31.46,9.61-63.13,13.91-94.76.64-4.73,2.44-6.68,6.69-7.55,2.77-.57,5.77-1.41,4.39-4.46-14.43,1.72-28.41,3.33-42.37,5.16-1.34.18-2.49,1.78-3.74,2.72l.92,1.42Zm242.69.15c0,2.08,0,3.88,0,5.67-.22,12.15-.49,24.3-.68,36.45a576.81,576.81,0,0,1-7.64,82.94A397.2,397.2,0,0,0,1291.3,621c-.61,10.47,8.29,17.71,18.61,16.28a38.34,38.34,0,0,0,25.21-13.85,32.1,32.1,0,0,0,6.15-14.29c1.5-8.66-5.76-17.53-13.5-17.93-8.53-.45-16.85,7.19-16.94,15.54,0,5.72,2.28,8.61,7.14,8.86,4.5.24,6.77-2.3,7.53-9.17-1.44.84-2.43,1.49-3.48,2-2.57,1.29-5.71,3-7.3-.55-1.35-3,.66-5.74,3.7-7.19,6.79-3.26,13.29.74,13.81,8.43.83,12.49-9.3,23.53-22.4,23.67a13.7,13.7,0,0,1-8.61-3.71c-5.73-5.42-6.39-12.64-4.83-19.94,2.32-10.89,4.72-21.78,7.63-32.52,10.23-37.74,14-76.53,18.93-115.12.7-5.41.81-10.64,8.19-11.17,3.28-.23,3.68-2.49,3-4-14,1.68-27.38,3.29-40.72,4.86-2.56.31-5.76-.08-4,4.55ZM1857.3,614.07c4.22-5.67,2.21-10.88-4.48-12-7-1.21-15.29,4.83-16.54,12.76-1.48,9.41,1.75,17.56,8.9,23.71,6.59,5.67,14.83,5,21.75,1.76,20-9.49,30.15-34.34,14.64-53.8a113.72,113.72,0,0,0-16.73-16.31c-11.68-9.67-19.62-21.2-20.66-36.72-.69-10.4,6.37-20.1,15.51-21.37,9.86-1.36,19.9,5.84,22.33,15.94,1,4.29,1.46,9.15-2.84,11.08-2.9,1.3-7.26.23-10.69-.76-3.74-1.07-4.44-4.22-2.59-7.64,1.22-2.25,2.66-4.39,4-6.65-6-1.9-10.11-.85-11.57,2.78-2.95,7.34,5.25,20,13.11,20.17,6.78.18,14.14-5.49,17.16-13.25,2.78-7.13,1.45-14.61-4.25-19.11-10.4-8.22-22.27-9.92-34.28-4.64s-19.36,14.69-20,28.13c-.81,15.88,7.06,27.42,19,37.09a339.94,339.94,0,0,1,26,23.31c5,5,8,11.53,6.49,19.1s-9,15.48-15.18,16.39c-8.69,1.3-20.39-4-24.29-11-2.37-4.24-1.52-7.66,2.61-11.48,3.28-3,6.35-2,9.46.17C1855.21,612.47,1856.25,613.28,1857.3,614.07Zm-113.25-84c8.82,32.28,15.37,64.43,18.34,98.11-5.75.79-11,2-16.15,2.07s-5.9,2.17-4.59,6.69c19.67-1.67,37.88-7.7,55.34-17-.62-2.11-1.14-3.91-1.58-5.38l-27.06,12c-1.31-19.45-1.86-37.79-4-55.94-1.37-11.57,1.47-21.24,7.6-30.56,5.41-8.22,12.71-13.11,22.77-13,9.17.14,17.31,6.68,18.1,14.21,1,9.75-5.09,19.34-13.58,21.31-5.11,1.18-9-.47-11.42-4.81-1.93-3.52-.92-9.74,2.31-12.42,1-.83,2.89-1.53,4-1.14s1.88,2.21,2,3.48c.21,2-.26,4.12-.46,6.46,3.82-.83,7.21-1.64,7.54-6.16s-2.44-6.6-6.09-8.08c-7.46-3-12.43,1.27-17.12,6-3.69,3.7-4,8.12-1.46,13.32,2.91,5.87,8.2,8.92,14.58,8.4,15.87-1.3,26.33-14.5,24.51-31-1.08-9.8-5.43-17.69-14.83-21.41-9.68-3.84-18.42-.38-24.81,6.92-5.15,5.89-8.69,13.18-12.91,19.88a30.45,30.45,0,0,0-1.51,3.09l-.86-.22V513.3c-10.54,8.94-22.07,14.23-34.48,17.9-1.12.33-1.7,2.5-2.53,3.81l1.41,1ZM291.18,524.12c-6-2.15-10-1-11.51,3.12C277,534.6,285,546.68,292.74,547c7,.26,14.42-5.53,17.39-13.57,2.75-7.46.67-15.13-5.35-19.75-18.85-14.47-48.58-3.46-52.75,19.92-2.88,16.21,3.6,29.16,16,39.56,9.06,7.58,18.33,15,26.5,23.49a34.46,34.46,0,0,1,8.25,16c1.79,8.13-5.26,18.08-13,20.89-7.57,2.74-20.85-2.16-25.69-9.48-3.12-4.72-2.67-7.7,1.41-11.93,3.68-3.79,7.1-2.53,10.61.11.88.66,1.8,1.28,2.72,1.92,3.76-5.92,2.12-10.5-4.05-11.93a12.09,12.09,0,0,0-11.12,3c-7.83,6.8-8.54,17.15-2.12,27.66,6.11,10,15.59,12.38,26.58,7.44,21.4-9.62,29.62-35.34,14.85-53.66-5.27-6.53-11.82-12.12-18.21-17.64-10.78-9.31-18.09-20.28-19.06-34.88-.71-10.75,5.56-20.16,14.75-21.88,9.75-1.83,19.53,4.78,22.72,15.25,1.35,4.46,1.52,8.83-2.43,11.88-3.75,2.89-7.65.53-11.24-1-3-1.34-4.16-3.82-2.53-7C288.26,528.85,289.77,526.53,291.18,524.12ZM1014.4,628.54c-.09-1.65-.22-2.46-.17-3.26,1.58-29.38,3.22-58.75,4.76-88.13.49-9.37.38-9.37,9.54-12,.75-.21,1.47-.56,2.29-.87,0-1.39,0-2.55,0-3.7,0-.45-.29-.89-.07-.27l-41.15,3.85c0,.72.1,2.1.21,4.09h13.29c4,33.88,5.37,67.3,5.61,100.94l-15.69,1c0,1.33,0,2.31,0,3.28s.27,2.14.29,2.3l46.87-2.34v-6.22ZM414.18,528c4,33.86,5.45,67.33,5.67,101.11l-15.59,1v5.6l47-2.4v-6.16l-25.86,1.26c.42-9.16.75-17.46,1.2-25.75,1.25-23.11,2.65-46.2,3.73-69.31.23-4.75,1.63-7.28,6.69-7.57,3.89-.22,6.2-2.16,4.36-6.42-6.7,1.24-13.33,3-20.05,3.57s-13.53.13-20.1.13c-1.07,3.79,0,5.2,3.51,4.93C407.71,527.83,410.7,528,414.18,528Z" transform="translate(-6 -391.08)"/><path class="cls-2" d="M920.81,623.82c6.42-31.44,17.46-60.39,35.74-86.51,6.36-9.09,12.8-18.37,14.9-29.67a75.16,75.16,0,0,0,1.33-11.38c.3-9.74-8.77-19.95-18.47-21.09-5.75-.68-10.52,2-12.43,7-2.34,6.11-.61,13.93,4.25,16.56a8.62,8.62,0,0,0,6.92.31c1.54-.77,2.48-3.64,2.8-5.72s-.49-4.23-.81-6.36c6.24-.51,9.44,3.86,7.07,9.59-2.85,6.88-14.6,12.14-21.61,9.67a13.72,13.72,0,0,1-8.64-11.82c-.88-14.24,15.56-29.28,29.65-27.13,10,1.52,16.83,9.54,17.52,20.7,1,16.4-3,31.71-10.49,46.17-8.64,16.68-18,33-26.06,50C934,602,926.74,620.46,923.6,640.43c-3.47,1.53-5.26.35-7-3.28C900.5,602.91,887.12,567.68,877.8,531c-.28-1.13-.72-2.21-1.38-4.21-2.93,6.33-5.69,12-8.15,17.7C857.05,570.69,849.05,598,843,625.8c-1.74,8.09-1.63,8.11-9.58,9.72C828,615,823.11,594.25,817,573.93,807.83,543.66,797,514,782,486c-2.52-4.71-5-6.2-10-4.17-4.3,1.74-8.89,2.76-13.9,4.26l-1.52-5.25c22.23-8.16,44.85-12.68,68.15-16.75l2.17,5.93-25,4.74c16.5,46.15,25.72,93.46,35.37,141.69,6.29-20.58,11.86-40.4,18.46-59.88s14.21-38.59,21.55-58.32c5.92,2.36,10.61,4,15,6.15,1.23.6,2.31,2.75,2.4,4.25,2.36,38.73,12.73,75.67,24.8,112.24C919.86,621.89,920.38,622.84,920.81,623.82Z" transform="translate(-6 -391.08)"/><path class="cls-3" d="M1542,545.51c-8.64,26.64-17.48,53.47-25.94,80.41-1.48,4.72-3.8,6.6-9,5.93-12.7-33-20.89-68-38.31-100.31l-18.67,12-3.12-4.48,39.68-24.94c11.47,33.44,15.47,68.63,25.2,102.74,7.29-12,24.2-74.46,25.9-95.33h-14.32c-.15-1.52-.31-3.2-.43-4.48l48.6-5.17c.13,1.5.33,3.68.58,6.35l-16.72,1.89c5.18,29.28,9.41,58.46,21,86.76,11-14.34,21-28.28,27.54-44.48,4.45-11.06,7.8-22.43,6.83-34.45a47.27,47.27,0,0,0-4-14.74c-1.14-2.65-3.94-5-6.54-6.52-3.86-2.3-8.54-.78-9.86,2.49-1.42,3.5,1.69,11.59,5.06,11.73,2.33.09,4.75-2,8-3.51,1.76,2.23,1,5.32-1.55,8.39-3.89,4.74-7.69,6-11.56,3.75a13.32,13.32,0,0,1-6.74-14.33,23.33,23.33,0,0,1,10.51-16.29c4.94-3.3,10.3-2.82,14.61,1.28,6,5.64,7.91,13,8.18,20.83.58,16.58-2.06,32.71-9.91,47.36-10.43,19.46-21.77,38.43-32.71,57.62l-1.67.08Z" transform="translate(-6 -391.08)"/><path class="cls-3" d="M644.54,513.52c-1.07-3.49-2.5-6.91-3.15-10.48a17,17,0,0,1,8.26-17.88c7-4.16,16-3.94,21.66.54,3.54,2.78,5.64,6.31,4.41,10.86-1.18,4.4-4.42,6.84-8.84,7.88-3.38.8-5.45-.29-6.1-2.78,2.36-1.23,6-2.16,6.16-3.42.32-3.37-.07-7.42-1.82-10.13-1-1.55-5.49-1.95-7.93-1.23-5.05,1.48-7.08,6.15-7.21,11-.21,7.22.41,14.47.72,22.76-1-.07-3.08.37-4.54-.42-14.12-7.65-29.12-4.65-37.83,8.46-11,16.53-11.3,34.35-3.13,51.85,7.2,15.42,22.76,17.26,34.78,5.12,12.16-12.3,15.79-32.69,8-46-2.9-5-6.64-9.15-12.5-10.82s-10.72.58-12.79,6.31a14.44,14.44,0,0,0,1.89,13.34c2.14,3.22,5,3.34,7.31.23,1-1.42,1.09-3.58,1.58-5.41l-5.88-1.3c1.05-1.47,2-4.21,3.53-4.65,2.08-.58,5.51-.14,6.8,1.28a8.64,8.64,0,0,1,1.52,7.2c-1.51,4.79-5.55,7.37-10.52,8a13.28,13.28,0,0,1-13.61-7.36c-2.17-4.49-2.43-8.94,1-13.1,6.37-7.83,14.45-9.42,23.81-6.79,24.52,6.88,31.63,35.71,13.46,55.2-7.65,8.21-16.51,14.45-28.2,15.56a4.43,4.43,0,0,0-3.1,2.85c-1,8.06-1.66,16.17-2.51,25.1,5.83-3,10.9-6.24,16.37-8.45,9.81-4,19.6-8.59,29.86-10.67,16-3.24,26.18,6,27,22.37.71,14.36-5.62,25.55-16.31,34.27-20.31,16.59-43.27,20.43-67.91,11.87-5.41-1.88-10.37-6-14.6-10.1A20.88,20.88,0,0,1,592.34,636c3.93-4.75,9.48-8.19,14.41-12.08.67-.52,2-.19,3.06-.26-.3,1.09-.27,2.5-1,3.2-8.88,9-9.61,19.5-5.23,30.47,4.57,11.43,13.37,17.51,25.9,17.71,18.32.28,34.24-5.39,45.76-20.1a47.13,47.13,0,0,0,8.24-16.74c2.47-9.52-4.33-17.06-14.17-17.22-14.45-.24-27.35,4.94-39.86,11.4-4.43,2.29-8.58,5.12-13,7.37-1.51.77-3.54.54-4.55.67,1.84-13.93,3.64-26.9,5.14-39.9.16-1.38-1.13-3.94-2.28-4.32-33.16-10.89-34.07-45.71-17.47-66.56,12.63-15.87,28.24-21.09,46.3-15.19l1.17.31Z" transform="translate(-6 -391.08)"/><path class="cls-2" d="M1182.57,454.26h-11.81c-.92-2.87-1.21-4.68,2.5-4.9,12.28-.73,24.54-1.67,37.17-2.55,1.09,2.34.88,4.32-2.82,4.43-4.67.15-6,3.17-6.52,7.13-3.66,26.19-8.08,52.3-10.88,78.58-2.46,23.14-3.4,46.46-4.5,69.72-.54,11.54,2,16.26,9.94,23.42-1,1.42-2.09,2.87-3.24,4.46-6-1.61-9.22-6.12-10.21-11.32a257.48,257.48,0,0,1-3.93-30.58c-.79-11.61-.59-23.29-.88-34.94-.19-7.39-9.77-18.73-18.07-21.52-7.67-2.58-16,0-21.82,7.1-10.44,12.65-13.37,27.52-11,43.2,1.31,8.56,4.25,17,7.54,25.08,2.52,6.18,7.89,10.12,14.71,11.69a17.36,17.36,0,0,0,20.59-10.73c2.42-6.22.2-12.23-6-16.29-5.56-3.63-11.49-3.68-15,.54-1.29,1.56-2,4.79-1.2,6.51.59,1.34,4.36,2.65,5.73,2,1.83-.92,2.7-3.75,4.54-6.62,1.25,1,3.74,1.94,4.06,3.39a10,10,0,0,1-1.12,7,8.48,8.48,0,0,1-9.54,3.88,12.48,12.48,0,0,1-8.9-10.35,16.29,16.29,0,0,1,11.15-17.48c7.79-2.36,15.41.91,19,8.8,3.73,8.24,4.84,16.69-1,24.61-6.08,8.17-14.26,10.93-24.2,9.21-21.29-3.67-36.59-20.89-38.62-43.63-2-22.16,13.79-46,35-52.77,11.45-3.68,22.08-.43,30.42,9.31,1.19,1.38,2.31,2.82,4.44,5.43C1179.61,514.85,1181.07,485,1182.57,454.26Z" transform="translate(-6 -391.08)"/><path class="cls-2" d="M105,512.79c2.36-1.34,4.48-2.31,6.34-3.64,3.42-2.45,3.24-6.15,1.19-8.84-1.16-1.52-4.79-2.37-6.8-1.78-5.71,1.67-9.87,5.41-11,11.69-1.09,6.11,2.7,9.73,7,12.77,4.92,3.51,10.3,3.52,15.55.62,9-5,14.39-19.31,11.63-30.75-2.67-11.1-12.47-19.41-23.45-20-18.85-1-33.1,6.93-43.53,22.35-9.61,14.21-13.92,30.14-14.78,47-.93,18,1.07,35.61,8.93,52.11,6.73,14.12,15.84,26.23,30.27,33.39A43.42,43.42,0,0,0,114,631.57c13.55-2.53,22.39-13.53,23-28.19.29-6.77.05-13.56.05-20.78l12.42.69c.52,30.05-17.45,57.86-54.39,55.11-20.71-1.55-35.33-13.69-47.66-29-17.56-21.75-22.54-46.24-14.57-73.18,6.7-22.67,17.17-43,36.7-57.39,14.77-10.9,31.22-13.56,48.81-8.76a34.81,34.81,0,0,1,21.27,16.34c5.29,9,5.14,18.23-.89,26.81a36.51,36.51,0,0,1-23.67,15.44c-12.73,2.43-25.93-6.16-27.48-17.81-.93-7,2.14-13.33,8-16.43,6.7-3.58,14.89-2.75,20,2,5,4.6,4.24,14.84-1.5,18.43C110.7,517,107.52,516.67,105,512.79Z" transform="translate(-6 -391.08)"/><path class="cls-2" d="M520.7,616.08c4.72-.09,8.12-.45,7.19-5-.29-1.42-1.4-3.41-2.54-3.73a6.05,6.05,0,0,0-4.9,1.09c-4.17,3.71-4.83,13.24-1.57,17.66,2.94,4,10.49,5.36,15.42,1.48a33,33,0,0,0,9.62-12.23c6.55-15.13,6.46-31.46,6.88-47.59A49.6,49.6,0,0,0,544,541.5c-12.38-21.71-31.54-23.43-47.23-4a63.86,63.86,0,0,0-14.58,38.94c-.55,15.46-2.09,30.89-3.18,46.33-.09,1.3,0,2.6,0,4.49l12.51-2.65c.61,1.78,1.12,3.29,1.75,5.14-12.17,4.53-24.36,3.53-37,2.92.35-2,.63-3.6,1-5.74L472.91,628c3.4-13.58-2.72-86.28-8.68-104.8-4.69-1.85-10.76,4.26-15.12-2.16l35.26-10.87c-.58,13-1.18,26.12-1.78,39.28l.78.31c.58-1,1.17-2,1.73-3,2.1-3.78,3.92-7.74,6.32-11.32,12.38-18.45,33.19-22.54,51.88-10.36,21.09,13.75,29.32,37.11,22.31,63.61a81.38,81.38,0,0,1-17.87,33.64,45.67,45.67,0,0,1-10.68,8.87c-8.9,5.25-17.9,3.69-24.86-3.87-3.73-4-6.61-8.7-4.32-14.45s7.2-8.61,13-9.71a21.21,21.21,0,0,1,7.45.14c3.49.63,7.4,1.77,7.51,6,.07,2.62-1,6.26-2.88,7.71C529.91,619.39,525.76,620,520.7,616.08Z" transform="translate(-6 -391.08)"/><path class="cls-3" d="M1697.53,604.87c5.77,1.23,7.39,6.28,3.64,10.38-2.57,2.81-5.78,4.78-9.78,3.2-4.61-1.81-7.91-5-8.41-10.2-.59-6.19,1.46-11.3,7.14-14.22,6.78-3.48,13.65-3.07,19.79,1.5,10.62,7.9,10.45,24.41-.13,32.4-12.18,9.2-30,9.4-45.22.51-35.7-20.87-40.24-66.5-9.53-94.3,11.33-10.26,23.82-16.4,39.51-13.14a42.8,42.8,0,0,1,24.66,15.08,21.79,21.79,0,0,1-.87,28.79,36.21,36.21,0,0,1-11.52,8.48c-12.93,5.7-26.36,5.19-39.45.56-9.5-3.35-12.79-11.5-8.76-19.37s15.37-11.34,22.73-6.15a10.58,10.58,0,0,1,4,7.64,8.55,8.55,0,0,1-7.32,8.35c-1.83.31-3.94-1-7.27-2,2.52-1.53,3.78-1.9,4.36-2.74,1.14-1.64,3.08-4.09,2.55-5.2a11.06,11.06,0,0,0-5.44-5c-1.1-.46-3.77,1-4.76,2.39-4.67,6.34-3.29,12.43,3.56,16.34a36.17,36.17,0,0,0,23.14,4.43c11.37-1.51,17.82-11.51,15.7-24.17a30.07,30.07,0,0,0-12.78-20.13c-8.73-6.13-20.7-4.8-28.83,3.1-8.59,8.35-12.61,19-14.58,30.53-2.22,13.12-2.83,26.25,1.5,39,4.79,14.08,13,25.19,28.59,28.55,9.77,2.11,18.13-1,24.77-8.35,4.11-4.55,4.45-10.86,1.24-15.17-3.86-5.18-13-8.53-17.74-6a10.76,10.76,0,0,0-4.6,5.4c-1,2.82.46,5.64,3.7,5.73,1.73.05,3.67-1.62,5.21-2.89C1697.09,607.67,1697.11,606.2,1697.53,604.87Z" transform="translate(-6 -391.08)"/><path class="cls-3" d="M1401.83,521c-25.84,6.69-39.13,36.08-34.46,65.24,1.84,11.53,5.49,22.22,13.38,31.18,9.2,10.46,28.41,16,42.21-.46,15.82-18.91,19.3-50.49,7-71.23-4.93-8.28-11.26-14.78-21.5-16.22-10.57-1.48-20.61,8.12-19.39,18.76.53,4.61,4.86,8.89,9.23,9.11s10.85-3.78,11.46-7.41a6.25,6.25,0,0,0-1.37-4.93,7.69,7.69,0,0,0-5.37-1.79c-2.77.24-2.57,2.46.59,6.31-2.15,2.65-4.67,3.51-7.06.61s-2.25-6.53.87-8.3c2.72-1.54,7-2.74,9.51-1.6,2.95,1.37,6.53,5.39,6.51,8.24a21.33,21.33,0,0,1-4.77,13c-6.7,7.56-17,5.4-21.09-3.81-3.48-7.9-3-15.63,2.42-22.59,6-7.66,13.5-12.33,23.73-10.76,19.57,3,38,23.2,39.26,43.06,1.46,24-8.49,42.7-27.41,56.71-14.31,10.59-29.83,9.77-44.7,1.57-32.65-18-44.53-61.37-8.36-93,7.5-6.56,15.91-11.48,25.65-13.83,1.2-.29,2.65.47,4,.75C1402,520.12,1401.92,520.58,1401.83,521Z" transform="translate(-6 -391.08)"/><path class="cls-3" d="M193,552.56c-1.14,3.5-4.42,4.65-7.29,3.09-2.12-1.15-3.43-4.38-4.32-6.95-.41-1.18.77-3.17,1.66-4.51,4.23-6.4,19.26-6.57,23.19,0a12.37,12.37,0,0,1,1,8.49c-2.51,10.12-15.9,18.69-26.27,17.33a15.42,15.42,0,0,1-13.71-14.77c-.52-17,19.77-41,36.59-43.28,13-1.74,23.49,4.1,29.1,16.9s5.29,26.07-.36,38.75c-4,9.09-9.51,17.53-14,26.45C212.07,607,208.1,620.64,209,635.57h-4.95V620.33c-5.72,2.79-10.87,5.81-16.38,7.87a18,18,0,0,1-24-12.17c-1.8-6.81.16-12.47,5.31-17.09,5.69-5.1,12.47-7.47,20-7.81,6.15-.28,12.31-.46,18.42-1.14a6.82,6.82,0,0,0,4.73-3.09c7.83-16.63,10.1-34,5.89-52-1.54-6.62-3.74-13.51-11.53-14.73-8.94-1.39-17.47.53-23.2,8.38-6.06,8.31-7.25,18.12-6.93,28.06.14,4.12,2.12,7.87,6.45,9.28,5.09,1.66,9-.72,12.42-4.33,3.19-3.34,5.17-7.19,3.6-11.72a8.07,8.07,0,0,0-4.42-4.32c-1.71-.64-4.15-.16-5.93.61-.85.37-1.62,3.39-1.2,3.75C188.69,551.05,190.64,551.55,193,552.56Zm16.38,41.64c-6.4.73-11.88,1-17.2,2.06-6.84,1.34-11,5.92-12.76,12.58-1.61,6.3,2.12,12.63,7.7,13.57,5.73,1,16.6-5.25,18.23-10.84C206.87,606.19,207.87,600.64,209.33,594.2Z" transform="translate(-6 -391.08)"/><path class="cls-3" d="M1268.28,483.85a14.74,14.74,0,0,0-1-3.17,36.76,36.76,0,0,0-2.82-3.69c-1.17,1.26-2.87,2.32-3.4,3.81a8.1,8.1,0,0,0,4,10.18c4.18,1.93,7.45.34,10-3,7.42-9.51,2.56-27.42-8.62-32-6.54-2.66-14-.53-19.31,5.52-6.05,6.93-9.59,15.09-9,24.21,1,15.93,2.76,31.81,4.29,47.7.66,6.78,1.55,13.54,2.5,21.75l35.89-6.23v6.59l-34.93,5c1,22.73,2,45.28,3,68.88l21-4.34c.31,1.6.67,3.42,1.21,6.19l-43.48,4.93v-6.34h15.38c-1.72-23-3.39-45.34-5.11-68.38L1217.22,564v-6.61l19.1-1.82c-1.28-5.51-2.47-10.77-3.72-16-3.36-14.23-7.52-28.31-10-42.69-4.44-26,20.46-49.4,46-43.9,11.89,2.56,19.2,11.83,19,24.07-.14,7.64-5,12.19-11,15.53a18.14,18.14,0,0,1-18.18.3c-4.28-2.29-6.33-9.1-4.35-13.11,2.08-4.21,8.49-7.26,12.73-5.49a8.83,8.83,0,0,1,4.67,4.58c.47,1.37-1.3,3.52-2.07,5.32Z" transform="translate(-6 -391.08)"/><path class="cls-3" d="M376.68,600.62c1.38,4.22-.43,8.51-3.95,9.31a11,11,0,0,1-10.89-3.5c-2.95-3.1-2.67-6.66-1.16-10.22,2.44-5.73,9.33-10.12,15.43-8.53a50,50,0,0,1,14.54,7c4.73,3.13,3.92,8.54,3.17,13.3-1.2,7.6-4.89,14-10.07,19.72-8.44,9.27-26.28,5.72-34.17-1.66s-10.6-16.47-9.9-26.66c1.48-21.58,3.42-43.12,5.1-64.69.22-2.78,0-5.6,0-8.8l-22.11,6.19v-6.86l22.79-5.54c-.52-12-1.05-24-1.6-36.6l21.2-3.58c-1,12-1.86,23.16-2.78,34.64l32.38-8.33c.62,2.46,1.19,4.75,1.93,7.7-5,.86-9.49,1.53-14,2.44-6.18,1.26-12.37,2.53-18.46,4.16a5.42,5.42,0,0,0-3.21,3.45q-6.42,32.3-12.46,64.67c-1.56,8.4-2.33,17,.63,25.16a28.88,28.88,0,0,0,7.33,11.53c9.4,8.34,22,4.79,26-7.06,2.44-7.36,3.82-15-1.42-22-2.13-2.83-5.35-5.5-8.31-2.62a15.47,15.47,0,0,0-4,9.91c-.07,3,3.15,2.81,5.27,1A19.59,19.59,0,0,0,376.68,600.62Z" transform="translate(-6 -391.08)"/><path class="cls-3" d="M1061.14,455.6h-14.52l-.92-1.42c1.25-.94,2.4-2.54,3.74-2.72,14-1.83,27.94-3.44,42.37-5.16,1.38,3.05-1.62,3.89-4.39,4.46-4.25.87-6.05,2.82-6.69,7.55-4.3,31.63-8.53,63.3-13.91,94.76-3,17.66-8.24,34.93-12.34,52.4-1.91,8.14-2.56,16.14,3.51,23.19,2.72,3.15,5.78,4.71,10,4.32,12.49-1.14,22.15-11.26,21.83-23.07-.2-7.29-5.38-11.56-12.25-9.74a8,8,0,0,0-4.63,3.28,6.39,6.39,0,0,0-.07,5.39c.45.8,3.31.65,4.94.29s3.08-1.53,4.8-2.44c0,6-2.26,8.85-6.66,8.89-4.74,0-7.54-2.71-7.89-7.77-.56-8.16,7-16,16-16.61,7-.45,13.94,6.44,14.74,14.84a21.61,21.61,0,0,1-5.36,16.66c-6.5,7.52-14.78,12.08-24.5,14.44-12.43,3-21.83-7.81-20.39-19,2.61-20.12,5.45-40.21,7.58-60.38,1.85-17.52,3.19-35.12,4.12-52.72.77-14.45.61-28.95.85-43.43C1061.17,459.81,1061.14,458,1061.14,455.6Z" transform="translate(-6 -391.08)"/><path class="cls-3" d="M1303.83,455.75h-14.38c-1.81-4.63,1.39-4.24,4-4.55,13.34-1.57,26.67-3.18,40.72-4.86.7,1.5.3,3.76-3,4-7.38.53-7.49,5.76-8.19,11.17-5,38.59-8.7,77.38-18.93,115.12-2.91,10.74-5.31,21.63-7.63,32.52-1.56,7.3-.9,14.52,4.83,19.94a13.7,13.7,0,0,0,8.61,3.71c13.1-.14,23.23-11.18,22.4-23.67-.52-7.69-7-11.69-13.81-8.43-3,1.45-5.05,4.14-3.7,7.19,1.59,3.58,4.73,1.84,7.3.55,1-.53,2-1.18,3.48-2-.76,6.87-3,9.41-7.53,9.17-4.86-.25-7.19-3.14-7.14-8.86.09-8.35,8.41-16,16.94-15.54,7.74.4,15,9.27,13.5,17.93a32.1,32.1,0,0,1-6.15,14.29,38.34,38.34,0,0,1-25.21,13.85c-10.32,1.43-19.22-5.81-18.61-16.28a397.2,397.2,0,0,1,4.21-40.16,576.81,576.81,0,0,0,7.64-82.94c.19-12.15.46-24.3.68-36.45C1303.86,459.63,1303.83,457.83,1303.83,455.75Z" transform="translate(-6 -391.08)"/><path class="cls-3" d="M1857.3,614.07c-1-.79-2.09-1.6-3.16-2.35-3.11-2.18-6.18-3.19-9.46-.17-4.13,3.82-5,7.24-2.61,11.48,3.9,7,15.6,12.27,24.29,11,6.13-.91,13.67-8.91,15.18-16.39s-1.46-14.09-6.49-19.1a339.94,339.94,0,0,0-26-23.31c-11.93-9.67-19.8-21.21-19-37.09.68-13.44,8.13-22.89,20-28.13s23.88-3.58,34.28,4.64c5.7,4.5,7,12,4.25,19.11-3,7.76-10.38,13.43-17.16,13.25-7.86-.22-16.06-12.83-13.11-20.17,1.46-3.63,5.52-4.68,11.57-2.78-1.38,2.26-2.82,4.4-4,6.65-1.85,3.42-1.15,6.57,2.59,7.64,3.43,1,7.79,2.06,10.69.76,4.3-1.93,3.88-6.79,2.84-11.08-2.43-10.1-12.47-17.3-22.33-15.94-9.14,1.27-16.2,11-15.51,21.37,1,15.52,9,27.05,20.66,36.72a113.72,113.72,0,0,1,16.73,16.31c15.51,19.46,5.36,44.31-14.64,53.8-6.92,3.28-15.16,3.91-21.75-1.76-7.15-6.15-10.38-14.3-8.9-23.71,1.25-7.93,9.53-14,16.54-12.76C1859.51,603.19,1861.52,608.4,1857.3,614.07Z" transform="translate(-6 -391.08)"/><path class="cls-4" d="M1744.05,530.05l-17,6-1.41-1c.83-1.31,1.41-3.48,2.53-3.81,12.41-3.67,23.94-9,34.48-17.9V545l.86.22a30.45,30.45,0,0,1,1.51-3.09c4.22-6.7,7.76-14,12.91-19.88,6.39-7.3,15.13-10.76,24.81-6.92,9.4,3.72,13.75,11.61,14.83,21.41,1.82,16.48-8.64,29.68-24.51,31-6.38.52-11.67-2.53-14.58-8.4-2.57-5.2-2.23-9.62,1.46-13.32,4.69-4.69,9.66-9,17.12-6,3.65,1.48,6.41,3.65,6.09,8.08s-3.72,5.33-7.54,6.16c.2-2.34.67-4.43.46-6.46-.12-1.27-1-3.12-2-3.48s-2.94.31-4,1.14c-3.23,2.68-4.24,8.9-2.31,12.42,2.37,4.34,6.31,6,11.42,4.81,8.49-2,14.6-11.56,13.58-21.31-.79-7.53-8.93-14.07-18.1-14.21-10.06-.15-17.36,4.74-22.77,13-6.13,9.32-9,19-7.6,30.56,2.15,18.15,2.7,36.49,4,55.94l27.06-12c.44,1.47,1,3.27,1.58,5.38-17.46,9.27-35.67,15.3-55.34,17-1.31-4.52-.62-6.66,4.59-6.69s10.4-1.28,16.15-2.07C1759.42,594.48,1752.87,562.33,1744.05,530.05Z" transform="translate(-6 -391.08)"/><path class="cls-3" d="M291.18,524.12c-1.41,2.41-2.92,4.73-4.18,7.18-1.63,3.13-.52,5.61,2.53,7,3.59,1.58,7.49,3.94,11.24,1,4-3,3.78-7.42,2.43-11.88-3.19-10.47-13-17.08-22.72-15.25-9.19,1.72-15.46,11.13-14.75,21.88,1,14.6,8.28,25.57,19.06,34.88,6.39,5.52,12.94,11.11,18.21,17.64,14.77,18.32,6.55,44-14.85,53.66-11,4.94-20.47,2.56-26.58-7.44-6.42-10.51-5.71-20.86,2.12-27.66a12.09,12.09,0,0,1,11.12-3c6.17,1.43,7.81,6,4.05,11.93-.92-.64-1.84-1.26-2.72-1.92-3.51-2.64-6.93-3.9-10.61-.11-4.08,4.23-4.53,7.21-1.41,11.93,4.84,7.32,18.12,12.22,25.69,9.48,7.74-2.81,14.79-12.76,13-20.89a34.46,34.46,0,0,0-8.25-16c-8.17-8.47-17.44-15.91-26.5-23.49-12.43-10.4-18.91-23.35-16-39.56,4.17-23.38,33.9-34.39,52.75-19.92,6,4.62,8.1,12.29,5.35,19.75-3,8-10.38,13.83-17.39,13.57-7.72-.28-15.72-12.36-13.07-19.72C281.16,523.11,285.17,522,291.18,524.12Z" transform="translate(-6 -391.08)"/><path class="cls-2" d="M1014.4,628.54l25.77-1.37v6.22l-46.87,2.34c0-.16-.21-1.23-.29-2.3s0-1.95,0-3.28l15.69-1c-.24-33.64-1.58-67.06-5.61-100.94H989.78c-.11-2-.18-3.37-.21-4.09l41.15-3.85c-.22-.62,0-.18.07.27.07,1.15,0,2.31,0,3.7-.82.31-1.54.66-2.29.87-9.16,2.64-9,2.64-9.54,12-1.54,29.38-3.18,58.75-4.76,88.13C1014.18,626.08,1014.31,626.89,1014.4,628.54Z" transform="translate(-6 -391.08)"/><path class="cls-2" d="M414.18,528c-3.48,0-6.47-.18-9.43,0-3.5.27-4.58-1.14-3.51-4.93,6.57,0,13.38.49,20.1-.13s13.35-2.33,20.05-3.57c1.84,4.26-.47,6.2-4.36,6.42-5.06.29-6.46,2.82-6.69,7.57-1.08,23.11-2.48,46.2-3.73,69.31-.45,8.29-.78,16.59-1.2,25.75l25.86-1.26v6.16l-47,2.4v-5.6l15.59-1C419.63,595.34,418.16,561.87,414.18,528Z" transform="translate(-6 -391.08)"/><path class="cls-5" d="M431.8,451.65,428,452l-9-1,.06.06L418,450l.07,0c-3.06-4-2.62-8,0-12.06L418,438l2.28-.85a1.14,1.14,0,0,0,.73-.26l7.88-.63c2.16-3.16,4.74-6.74,7.1-10.45a57.14,57.14,0,0,0,2.9-5.87c4.39-9.43,10.38-13.14,20.21-12.52,6,.37,11.74,5,12.64,10.21.83,4.84-2.2,9.7-7.86,12.46-2.23,1.08-4.54,2-6.81,3-.14-.74-.66-1.68-.38-2.19,2.75-5,.76-9.41-4.76-10.31,5,5.68,5.05,6.23,1,12.32L438,439.16h-5.5c4.8,4.17,1.35,7.74.46,11.4Z" transform="translate(-6 -391.08)"/><path class="cls-6" d="M435,472l1.18-2,.88,0c3.53,4.1,4.52,8.78,2.43,13.76-2.17,5.18-6.52,7.29-12,7.25-2.64,0-5.4.23-7.92-.39-9-2.24-11.56-9.89-6.81-19.69l1,.14c.4,0,1.1,0,1.15-.12,1.81-5.53,3.57-11.07,5.34-16.61L428,453c1.93,4.46,4.1,8.85,5.66,13.44.55,1.6-.4,3.72-.67,5.6l-15.78,3.53a14,14,0,0,0,2.67,2.27C424.92,480.23,430,478.23,435,472Zm-19.44.14c-.2.17-.55.33-.55.49a2.65,2.65,0,0,0,.3.9c.19-.17.53-.32.54-.5A2.43,2.43,0,0,0,415.56,472.14Z" transform="translate(-6 -391.08)"/><path class="cls-7" d="M1019,503.85c.35,6.38-1,8.1-6.41,8.13-6.34,0-8.19-2.93-5.59-9l2-5.13-1.06-.73c-2.43,3.26-4.94,6.29-9.42,3.9-2.21-5.58,4-4.53,5.58-7.08l-.08,0,2.47-1.08.09.09,1.32.14.66.52-.15-1-.31-4.06a1.58,1.58,0,0,1,.57-.55c3.11-.09,6.9,1.09,7.35-3.95l0-1.07,7-2h1.57l2.36,1.79L1027,484l-6.28,5h7.86l1.43,1,0,0v3l0,0-1.56,1-1.64.06-4.37.37,3.61,4.41c-1.22,1-2.39,2.14-3.68,3.07A35.2,35.2,0,0,1,1019,503.85Zm-2.2.09c-.35-.27-.69-.55-1-.83l-1.38,2.06.92.65C1015.8,505.2,1016.29,504.57,1016.79,503.94Zm-7,1.23a1,1,0,0,0-.14-.41s-.23.05-.36.09a1.25,1.25,0,0,0,.15.41S1009.62,505.21,1009.74,505.17Zm2.23,1.58.4-.21c-.12-.1-.23-.26-.35-.27s-.26.13-.4.2Zm6.74-17.37c0,.11,0,.26.07.31a1.27,1.27,0,0,0,.37.08l-.1-.52Z" transform="translate(-6 -391.08)"/><path class="cls-4" d="M411,468c-5.66,11.45-11.34,15.09-21.8,13.95-6.18-.68-11-4.45-12.08-9.48-1.18-5.44,1.31-9.85,7.51-13.1a46.31,46.31,0,0,1,6.36-2.83c.43-.15,1.31,1,2,1.51L393,458c-3.63,1.49-2.72,4.23-1.9,7L393,467l0,0,2.06,1-.07,0L396,469l-.07,0c4,3.62,8.06,2.46,12.09,0L408,469,409,468l-.06,0H411Z" transform="translate(-6 -391.08)"/><path class="cls-5" d="M458,455.9c3.55,1.79,7.24,3.36,10.62,5.43,4,2.46,6.19,6.26,5.13,11a11.85,11.85,0,0,1-9.35,9.39C453.61,484.12,447,480.85,442,471l12.06-2L454,469,455,468,455,468c1.46-1.59,4.05-3.14,4.09-4.77.05-2.07-1.95-4.19-3.07-6.29l0,.06Z" transform="translate(-6 -391.08)"/><path class="cls-7" d="M392.06,454c-5.36.91-10.69,2.31-16.08,2.62-6.83.4-12.7-4.71-13-10.39-.41-7.81,3.44-12.59,11.51-13,5.2-.29,10.46.68,16,1.11-.51,1.74-.77,2.62-1,3.5l-2.91.15L384,439l0,0c-1.3,2-3.5,3.88-3.62,5.92-.1,1.62,2.33,3.41,3.63,5.12l0,0,1,1.07L385,451Z" transform="translate(-6 -391.08)"/><path class="cls-6" d="M395.29,432.72a6.15,6.15,0,0,1-1.22.69c-3.38,1.09-13.82-4.45-16.19-8.57a11,11,0,0,1,2.31-13.59c4.91-4.66,17.79-4.76,22.68,0a55.41,55.41,0,0,1,4.35,5.37L395.05,421,394,422,394,422,393,423l0,0c-1,1.83-2.72,3.71-2.61,5.48.08,1.26,2.67,2.37,4.14,3.54Z" transform="translate(-6 -391.08)"/><path class="cls-5" d="M457,434.32c5.27-.46,10.55-1.41,15.81-1.25,6.69.19,12,5.84,12,11.74,0,5.46-6.05,11.16-12.54,11.23-4.75.06-9.51-.68-14.27-1.06l-2.47-1.57,2.46-.57c1.51-.6,3.5-.8,4.45-1.9,1.79-2.08,4.25-4.75,4.1-7s-2.94-4.63-4.89-6.63c-.79-.82-2.42-.84-3.67-1.22l-1.59-.81Z" transform="translate(-6 -391.08)"/><path class="cls-8" d="M411.15,417c-3.71-8.05-3.07-12.8,2.3-16.94,5-3.84,15.86-4,20.74-.23,6,4.54,6.62,8.65,2.79,17.17h-2L431,414l.06,0-1-1,0,0c-4-3.44-8-2.86-12.07,0l.07,0-3.66,3.73L414,417Z" transform="translate(-6 -391.08)"/><path class="cls-7" d="M395.29,432.72l-.74-.72c-3.19-2.55-2.27-5.8-1.53-9l0,0,1-1.06L394,422l1.08-1,12.17-4.4,10.69,18.81,0,1.39c0,.42,0,.83,0,1.25L418,438c-3.09,2.85-6.54,2.09-10,1Z" transform="translate(-6 -391.08)"/><path class="cls-5" d="M393,458,407,451c3.65-.68,7.13-3.33,11.05-1l-.07,0L419,451,419,451c0,.68,0,1.37.07,2l-8.16,13.58.09-.08-2,1.5.06,0L408,469l.08-.06H396l.07,0L395,468l.07,0L393,467l0,0-.6-3.31L393,458Z" transform="translate(-6 -391.08)"/><path class="cls-5" d="M386.55,438l2.91-.15L408,440.18a6.49,6.49,0,0,1,1.75.86c1.39,1.32,2.68,2.74,4,4.12a36.66,36.66,0,0,1-3.86,3,28.57,28.57,0,0,1-4.07,1.69L395,452.07,385,451l.07.06L384,450l0,0c0-3.68,0-7.36,0-11l0,0Z" transform="translate(-6 -391.08)"/><path class="cls-8" d="M431.8,451.65l1.17-1.09,4-1.43,3.63,1.1,11.75,5.16L456,457l0-.06c1.07,3.82,2.08,7.63-1,11.06L455,468,454,469l.08-.06c-4.76-.12-9.78,1.64-14.06-2-2.49-3.71-5.08-7.35-7.39-11.17C431.91,454.71,432.05,453.06,431.8,451.65Z" transform="translate(-6 -391.08)"/><path class="cls-8" d="M418,436.78l0-1.39c.19-1.17.79-2.45.5-3.47-1.34-4.68-2.92-9.29-4.41-13.92,0-.33,0-.66,0-1l.39-.32L418,413l-.07,0H430l0,0,1,1-.06,0c.68,2.46,2.45,5.23,1.85,7.33-1.82,6.36-2.15,14.45-11.84,14.6l-2.52,1A1.46,1.46,0,0,0,418,436.78Z" transform="translate(-6 -391.08)"/><path class="cls-9" d="M1006.51,493l-.09-.09L1004,494l.08,0-7.11.82-2.07-.67c0,.56,0,1.11,0,1.66l-.91.56c-3.64,1.07-7.1.89-9.07-2.75a5.5,5.5,0,0,1,.25-4.88c2.55-3.33,6.15-3.31,9.81-1.77l-3.22,3.48,8.37-1.51,4.4.09-.07,0,1.82,0h.53C1006.72,490.31,1006.62,491.68,1006.51,493Z" transform="translate(-6 -391.08)"/><path class="cls-8" d="M1016,483l0,1.07c-3.15,3.14-5.92,3.63-8-1.12l-3.07-5c.13-5.88,1.88-7.88,6.86-7.86,5.25,0,7.08,2.36,6.2,7.88l-2.73-.26-1.08-.9-.6-.5.21.89,1.06.92Zm-4.87-5.34v-.4h-2.54v.4Z" transform="translate(-6 -391.08)"/><path class="cls-10" d="M1004.93,478l3.07,5c-.38.34-.76.68-1.15,1-.63-.51-1.19-1.3-1.9-1.47-1.9-.44-3.85-.61-5.79-.89l.94,5.44c0,.62,0,1.23,0,1.85l-8.37,1.51L995,487c-.23-.57-.3-1.42-.72-1.67-3.25-1.87-5.42-4.29-2.86-7.94s6.34-2.87,9.87-1.74C1002.61,476,1003.72,477.16,1004.93,478Z" transform="translate(-6 -391.08)"/><path class="cls-11" d="M998.46,501.06c4.48,2.39,7-.64,9.42-3.9l1.06.73-2,5.13a24.92,24.92,0,0,0-3.58,2.74c-2.94,3.22-6.49,3-9.89,1.48-4-1.82-3.71-5.79.45-9.29,1.48-.45,3.18-1.46,3,1.54C997,500,997.94,500.53,998.46,501.06Z" transform="translate(-6 -391.08)"/><path class="cls-9" d="M1028.58,489h-7.86l6.28-5,1.11,1.06a9.27,9.27,0,0,0,2.91.95c4-.12,7.46.76,7.89,5.43.32,3.49-3.74,5.65-9,5.1l-3.13-2.45,1.64-.06,1.56-1,0,0c0-1,0-2,0-3l0,0c-.13-.49-.25-1-.38-1.49Z" transform="translate(-6 -391.08)"/><path class="cls-12" d="M1019,503.85a35.2,35.2,0,0,0,3.39-1.92c1.29-.93,2.46-2,3.68-3.07a5.93,5.93,0,0,0,1.68,0,17.89,17.89,0,0,0,2.34-1c3.29,1.63,5.64,3.79,3.31,7.7-1.73,2.91-7.57,3.59-10.65,1.39C1021.43,506,1020.24,504.88,1019,503.85Z" transform="translate(-6 -391.08)"/><path class="cls-13" d="M421,435.9c9.69-.15,10-8.24,11.84-14.6.6-2.1-1.17-4.87-1.85-7.33l4.07,3,1.32,2.87,2.51.1a57.14,57.14,0,0,1-2.9,5.87c-2.36,3.71-4.94,7.29-7.1,10.45l-7.88.63C421,436.58,421,436.24,421,435.9Z" transform="translate(-6 -391.08)"/><path class="cls-14" d="M1028.11,485.05,1027,484c0-.4-.08-.81-.11-1.22l-2.37-1.79H1023c-1-1-2-2-3-3,2.25-1,4.61-3.07,6.74-2.86s5.43,2.15,6.15,4.09C1034,482.4,1031.66,484.64,1028.11,485.05Z" transform="translate(-6 -391.08)"/><path class="cls-15" d="M405.82,449.85a28.57,28.57,0,0,0,4.07-1.69,36.66,36.66,0,0,0,3.86-3c-1.33-1.38-2.62-2.8-4-4.12a6.49,6.49,0,0,0-1.75-.86l0-1.24c3.48,1.11,6.93,1.87,10-1-2.62,4-3.06,8,0,12.06-3.92-2.38-7.4.27-11.05,1Z" transform="translate(-6 -391.08)"/><path class="cls-4" d="M435,472c-5,6.23-10.08,8.23-15.1,5.79a14,14,0,0,1-2.67-2.27L433,472Z" transform="translate(-6 -391.08)"/><path class="cls-16" d="M457,434.32l-.64.93L452.92,433c4-6.09,4-6.64-1-12.32,5.52.9,7.51,5.31,4.76,10.31-.28.51.24,1.45.38,2.19Z" transform="translate(-6 -391.08)"/><path class="cls-17" d="M440,467c4.28,3.6,9.3,1.84,14.06,2L442,471Z" transform="translate(-6 -391.08)"/><path class="cls-18" d="M1019.94,477.94c1,1,2,2,3,3l-7,2-1.14-4.89.41-.41,2.73.26Z" transform="translate(-6 -391.08)"/><path class="cls-19" d="M1030.08,497.85a17.89,17.89,0,0,1-2.34,1,5.93,5.93,0,0,1-1.68,0l-3.61-4.41,4.37-.37,3.13,2.45C1030,497,1030,497.41,1030.08,497.85Z" transform="translate(-6 -391.08)"/><path class="cls-19" d="M998.46,501.06c-.52-.53-1.5-1.07-1.47-1.57.16-3-1.54-2-3-1.54l0-1.6.91-.56,2-1L1004,494C1002.42,496.53,996.25,495.48,998.46,501.06Z" transform="translate(-6 -391.08)"/><path class="cls-15" d="M419,453c0-.68-.05-1.37-.07-2l9,1c0,.32,0,.63,0,.95l-7.73,1.37Z" transform="translate(-6 -391.08)"/><path class="cls-17" d="M456,457l-3.68-1.63,1.76-3.78,3.85.15,0,1.08-2.46.57L458,455c0,.3,0,.61,0,.92Z" transform="translate(-6 -391.08)"/><path class="cls-15" d="M385,451,395,452.07l-3,2Z" transform="translate(-6 -391.08)"/><path class="cls-6" d="M436.35,419.87,435,417h2Z" transform="translate(-6 -391.08)"/><path class="cls-6" d="M414,417c0,.32,0,.65,0,1-1.43,1-2.78,1.85-2.85-1Z" transform="translate(-6 -391.08)"/><path class="cls-4" d="M411,466.52l-.09.08,1.3.08L411,468l0,0Z" transform="translate(-6 -391.08)"/><path class="cls-4" d="M413.8,471.05l-1-.14.8-.61Z" transform="translate(-6 -391.08)"/><path class="cls-4" d="M437.06,470l-.88,0,.36-.73Z" transform="translate(-6 -391.08)"/><path class="cls-1" d="M644.54,513.52l.24,1.19-1.17-.31Z" transform="translate(-6 -391.08)"/><path class="cls-20" d="M209.33,594.2c-1.46,6.44-2.46,12-4,17.37-1.63,5.59-12.5,11.8-18.23,10.84-5.58-.94-9.31-7.27-7.7-13.57,1.71-6.66,5.92-11.24,12.76-12.58C197.45,595.21,202.93,594.93,209.33,594.2Z" transform="translate(-6 -391.08)"/><path class="cls-17" d="M452.92,433l3.48,2.29,1.58.81c0,.36,0,.71,0,1.06l-19.91,3.13-.05-1.09Z" transform="translate(-6 -391.08)"/><path class="cls-16" d="M438,439.16c0,.37,0,.73.05,1.09q-.53,4-1.06,8a9.1,9.1,0,0,1,0,.91l-4,1.43c.89-3.66,4.34-7.23-.46-11.4Z" transform="translate(-6 -391.08)"/><path class="cls-15" d="M418,436.78a1.46,1.46,0,0,1,.5.16l1.8.24L418,438C418,437.61,418,437.2,418,436.78Z" transform="translate(-6 -391.08)"/><path class="cls-1" d="M420.25,437.18l-1.8-.24,2.52-1c0,.34,0,.68,0,1A1.14,1.14,0,0,1,420.25,437.18Z" transform="translate(-6 -391.08)"/><path class="cls-15" d="M419,451,418,450Z" transform="translate(-6 -391.08)"/><path class="cls-1" d="M415.56,472.14a2.43,2.43,0,0,1,.29.89c0,.18-.35.33-.54.5a2.65,2.65,0,0,1-.3-.9C415,472.47,415.36,472.31,415.56,472.14Z" transform="translate(-6 -391.08)"/><path class="cls-5" d="M1000.1,487.07l-.94-5.44c1.94.28,3.89.45,5.79.89.71.17,1.27,1,1.9,1.47.59,1.36,1.18,2.71,1.76,4.06a1.58,1.58,0,0,0-.57.55l-1.22.35h-.54l-1.81,0,.07,0Z" transform="translate(-6 -391.08)"/><path class="cls-21" d="M1008.61,488.05c-.58-1.35-1.17-2.7-1.76-4.06.39-.33.77-.67,1.15-1,2,4.75,4.81,4.26,8,1.12C1015.51,489.14,1011.72,488,1008.61,488.05Z" transform="translate(-6 -391.08)"/><path class="cls-14" d="M1016.79,503.94c-.5.63-1,1.26-1.49,1.88l-.92-.65,1.38-2.06C1016.1,503.39,1016.44,503.67,1016.79,503.94Z" transform="translate(-6 -391.08)"/><path class="cls-18" d="M1024.52,481l2.37,1.79Z" transform="translate(-6 -391.08)"/><path class="cls-21" d="M1006.82,489l1.22-.35c.11,1.36.21,2.71.31,4.06l-.51.52-1.32-.14Z" transform="translate(-6 -391.08)"/><path class="cls-19" d="M1030,490c0,1,0,2,0,3C1030,492,1030,491,1030,490Z" transform="translate(-6 -391.08)"/><path class="cls-14" d="M1009.74,505.17c-.12,0-.32.13-.35.09a1.25,1.25,0,0,1-.15-.41c.13,0,.33-.13.36-.09A1,1,0,0,1,1009.74,505.17Z" transform="translate(-6 -391.08)"/><path class="cls-14" d="M1012,506.75l-.35-.28c.14-.07.27-.21.4-.2s.23.17.35.27Z" transform="translate(-6 -391.08)"/><path class="cls-9" d="M1018.71,489.38l.34-.13.1.52a1.27,1.27,0,0,1-.37-.08C1018.72,489.64,1018.73,489.49,1018.71,489.38Z" transform="translate(-6 -391.08)"/><path class="cls-19" d="M1028.58,489l1.05-.47c.13.5.25,1,.38,1.49Z" transform="translate(-6 -391.08)"/><path class="cls-19" d="M1004,494l2.46-1.08Z" transform="translate(-6 -391.08)"/><path class="cls-19" d="M1030,493l-1.56,1Z" transform="translate(-6 -391.08)"/><path class="cls-21" d="M1008.35,492.66l.15,1-.66-.52Z" transform="translate(-6 -391.08)"/><path class="cls-19" d="M396,469h12.09C404,471.44,400,472.6,396,469Z" transform="translate(-6 -391.08)"/><path class="cls-1" d="M393,458l-.63,5.75-1.27,1.2C390.32,462.19,389.41,459.45,393,458Z" transform="translate(-6 -391.08)"/><path class="cls-19" d="M391.14,464.91l1.27-1.2L393,467Z" transform="translate(-6 -391.08)"/><path class="cls-19" d="M411,466.52,411,468H409Z" transform="translate(-6 -391.08)"/><path class="cls-19" d="M393,467l2.06,1Z" transform="translate(-6 -391.08)"/><path class="cls-19" d="M408,469,409,468Z" transform="translate(-6 -391.08)"/><path class="cls-19" d="M395,468,396,469Z" transform="translate(-6 -391.08)"/><path class="cls-17" d="M455,468c3.1-3.43,2.09-7.24,1-11.06,1.12,2.1,3.12,4.22,3.07,6.29C459,464.88,456.42,466.43,455,468Z" transform="translate(-6 -391.08)"/><path class="cls-17" d="M454,469,455,468Z" transform="translate(-6 -391.08)"/><path class="cls-15" d="M384,439c0,3.68,0,7.36,0,11-1.3-1.71-3.73-3.5-3.63-5.12C380.52,442.86,382.72,441,384,439Z" transform="translate(-6 -391.08)"/><path class="cls-15" d="M386.55,438,384,439Z" transform="translate(-6 -391.08)"/><path class="cls-15" d="M384,450l1,1.07Z" transform="translate(-6 -391.08)"/><path class="cls-13" d="M393,423c-.74,3.22-1.66,6.47,1.53,9-1.47-1.17-4.06-2.28-4.14-3.54C390.3,426.69,392.06,424.81,393,423Z" transform="translate(-6 -391.08)"/><path class="cls-13" d="M394,422,393,423Z" transform="translate(-6 -391.08)"/><path class="cls-13" d="M395.05,421,394,422Z" transform="translate(-6 -391.08)"/><path class="cls-16" d="M458,437.12c0-.35,0-.7,0-1.06,1.25.38,2.88.4,3.67,1.22,2,2,4.74,4.3,4.89,6.63s-2.31,4.95-4.1,7c-.95,1.1-2.94,1.3-4.45,1.9l0-1.08c3.13-1.74,6.57-3.27,6.44-7.68C464.27,440,461.33,438.31,458,437.12Z" transform="translate(-6 -391.08)"/><path class="cls-19" d="M430,413H418C422,410.16,426,409.58,430,413Z" transform="translate(-6 -391.08)"/><path class="cls-19" d="M418,413l-3.66,3.73Z" transform="translate(-6 -391.08)"/><path class="cls-19" d="M431,414l-1-1Z" transform="translate(-6 -391.08)"/><path class="cls-16" d="M454.1,451.61l-1.76,3.78-11.75-5.16,1.87-.46Z" transform="translate(-6 -391.08)"/><path class="cls-17" d="M442.46,449.77l-1.87.46-3.63-1.1a9.1,9.1,0,0,0,0-.91Z" transform="translate(-6 -391.08)"/><path class="cls-21" d="M1000.1,487.07l4.44,1.94-4.4-.09C1000.13,488.3,1000.12,487.69,1000.1,487.07Z" transform="translate(-6 -391.08)"/><path class="cls-10" d="M996.93,494.8l-2,1c0-.55,0-1.1,0-1.66Z" transform="translate(-6 -391.08)"/><path class="cls-21" d="M1004.47,489l1.81,0Z" transform="translate(-6 -391.08)"/><path class="cls-18" d="M1011.12,477.69h-2.54v-.4h2.54Z" transform="translate(-6 -391.08)"/><path class="cls-18" d="M1013.79,477.23l-.21-.9.6.51A3.59,3.59,0,0,0,1013.79,477.23Z" transform="translate(-6 -391.08)"/><path class="cls-18" d="M1014.85,478.14l-1.06-.92a4.68,4.68,0,0,1,.39-.38l1.08.89Z" transform="translate(-6 -391.08)"/><path class="cls-5" d="M442.46,449.77,437,448.22q.54-4,1.06-8L458,437.12c3.36,1.19,6.3,2.85,6.42,7,.13,4.41-3.31,5.94-6.44,7.68l-3.85-.15Z" transform="translate(-6 -391.08)"/></svg>